<?xml version="1.0" standalone="no"?>
<!DOCTYPE svg PUBLIC "-//W3C//DTD SVG 20010904//EN"
 "http://www.w3.org/TR/2001/REC-SVG-20010904/DTD/svg10.dtd">
<svg version="1.0" xmlns="http://www.w3.org/2000/svg"
 width="3840.000000pt" height="2160.000000pt" viewBox="0 0 3840.000000 2160.000000"
 preserveAspectRatio="xMidYMid meet">

<g transform="translate(0.000000,2160.000000) scale(0.100000,-0.100000)"
fill="#000000" stroke="none">
<path d="M17144 16470 c-12 -5 -25 -13 -29 -19 -8 -13 -85 -14 -118 -2 -13 5
-80 11 -148 13 -116 3 -126 1 -152 -19 -26 -20 -40 -22 -146 -22 -75 1 -139
-5 -177 -14 -92 -24 -189 -46 -270 -62 -42 -8 -89 -24 -107 -37 -29 -21 -69
-39 -122 -55 -25 -8 -35 -19 -60 -67 -22 -44 -89 -116 -107 -116 -20 -1 -78
-58 -78 -77 -1 -21 -23 -53 -37 -53 -13 0 -23 -33 -23 -74 0 -40 -21 -106 -31
-100 -5 3 -9 0 -9 -5 0 -6 -7 -11 -15 -11 -8 0 -19 -9 -25 -21 -9 -16 -8 -24
4 -37 13 -16 12 -23 -10 -77 -14 -35 -24 -77 -23 -100 3 -73 0 -83 -23 -87
-34 -5 -36 -43 -4 -64 33 -21 33 -41 -1 -76 l-26 -28 2 -297 c2 -279 4 -299
22 -319 23 -24 25 -70 4 -78 -23 -8 -18 -61 8 -90 18 -21 22 -36 22 -95 0 -62
3 -73 23 -86 16 -12 22 -26 22 -56 0 -67 28 -136 64 -159 22 -13 37 -33 45
-60 14 -46 62 -106 94 -116 21 -7 81 -45 147 -96 46 -35 131 -71 205 -87 65
-14 121 -29 145 -38 8 -3 29 -8 45 -9 102 -12 150 -20 163 -28 6 -3 30 -2 53
3 34 8 45 7 54 -5 8 -12 64 -15 334 -19 310 -3 324 -4 342 -24 17 -18 28 -20
122 -15 56 3 125 9 153 14 28 5 60 6 72 4 11 -3 29 -1 39 5 15 8 30 4 67 -14
47 -24 48 -24 403 -25 l356 0 21 -25 c21 -24 24 -25 116 -19 52 4 147 7 210 8
69 1 134 7 163 16 32 10 50 11 55 4 4 -5 23 -17 43 -27 29 -13 60 -15 175 -12
157 4 214 -2 214 -21 0 -7 23 -18 58 -25 68 -15 92 -33 92 -70 0 -37 15 -74
40 -99 16 -16 20 -33 20 -92 1 -40 3 -98 6 -128 5 -59 -3 -123 -14 -116 -4 2
-23 -19 -42 -47 -40 -58 -77 -83 -141 -96 -24 -5 -65 -17 -92 -27 -46 -18 -48
-18 -84 1 -34 18 -82 22 -93 6 -22 -30 -68 -31 -983 -32 l-922 0 -20 26 c-25
30 -36 31 -91 5 l-42 -21 -58 21 c-32 11 -71 20 -87 20 -29 0 -67 16 -78 32
-3 5 -26 19 -50 31 -38 19 -44 27 -47 57 -2 18 -10 39 -19 45 -20 15 -34 92
-18 99 15 5 26 54 13 62 -4 3 -6 10 -3 15 4 5 -1 9 -9 9 -10 0 -17 16 -22 58
-3 31 -11 62 -15 68 -13 16 -1335 16 -1348 0 -4 -6 -8 -57 -7 -113 1 -57 -2
-103 -5 -103 -6 0 -5 -30 1 -37 2 -2 4 -12 5 -23 1 -11 4 -22 5 -25 1 -3 3 -8
4 -12 0 -5 12 -19 25 -32 19 -19 22 -28 15 -55 -4 -17 -8 -63 -8 -103 0 -61
-2 -72 -18 -76 -25 -7 -23 -43 5 -62 20 -14 22 -24 23 -121 2 -87 5 -109 21
-127 36 -42 64 -88 78 -126 7 -21 24 -56 37 -77 12 -22 31 -55 41 -74 24 -45
101 -107 220 -177 11 -6 24 -19 29 -27 5 -9 17 -16 27 -16 10 0 20 -3 24 -6 3
-3 28 -8 54 -10 36 -3 53 -10 68 -28 22 -26 63 -41 140 -51 28 -4 61 -13 75
-19 96 -48 101 -50 121 -38 25 16 61 15 95 -3 22 -11 65 -15 172 -15 130 0
144 -2 159 -20 22 -25 112 -28 166 -5 51 21 89 19 143 -10 l47 -25 1022 0
c993 0 1023 1 1045 20 24 21 112 36 156 26 16 -3 79 -8 139 -10 61 -3 119 -8
130 -11 13 -4 29 1 42 13 19 16 42 19 169 21 82 1 157 7 168 13 34 18 86 28
188 37 75 7 103 14 124 30 15 12 36 21 47 21 12 0 34 12 49 27 20 19 39 27 70
28 36 2 45 7 58 31 26 51 44 71 70 80 14 4 28 7 32 6 4 -1 12 14 18 33 6 19
26 47 43 62 18 16 41 45 50 66 11 23 27 39 42 43 28 7 27 5 30 72 2 58 10 77
46 111 24 23 26 32 22 72 -4 34 0 53 16 79 11 19 21 45 21 58 0 12 8 30 18 40
9 10 19 25 21 33 2 8 5 21 8 29 2 9 -5 26 -16 39 -21 24 -30 91 -13 91 27 0
32 61 32 386 -1 194 -5 332 -10 329 -5 -3 -14 11 -19 32 -14 50 -14 58 4 73
19 16 19 49 1 56 -17 7 -30 65 -27 121 2 41 -15 91 -27 79 -5 -6 -73 117 -76
140 -3 22 -51 124 -58 124 -5 0 -8 6 -8 14 0 7 -11 21 -23 29 -13 9 -55 46
-93 84 -66 66 -99 86 -204 127 -8 3 -37 22 -64 41 -30 22 -60 35 -79 35 -41 0
-180 39 -189 54 -4 6 -8 8 -8 3 0 -4 -11 0 -25 9 -22 15 -25 15 -25 1 0 -25
-12 -26 -75 -10 -36 10 -128 18 -230 22 -157 6 -172 8 -192 28 -18 18 -29 21
-60 16 -21 -3 -45 -12 -55 -20 -14 -13 -20 -12 -43 3 -21 14 -28 15 -35 5 -4
-7 -31 -14 -61 -16 -42 -2 -60 2 -91 21 l-38 24 -387 3 -388 2 -34 24 c-23 17
-33 20 -29 10 5 -12 -1 -15 -21 -14 -15 1 -32 4 -38 8 -6 4 -22 3 -35 -1 -12
-5 -66 -10 -118 -10 -184 -2 -241 -5 -246 -13 -5 -9 -32 -2 -53 15 -14 11 -15
11 -86 24 -28 4 -62 6 -75 2 -20 -4 -361 -6 -433 -1 -9 1 -27 12 -39 26 -24
28 -59 33 -78 10 -7 -8 -21 -15 -32 -15 -10 0 -16 -4 -13 -10 13 -21 -29 -9
-78 23 -29 19 -72 44 -97 56 -52 27 -92 60 -84 72 3 5 0 9 -6 9 -6 0 -8 4 -5
10 3 5 1 19 -6 31 -14 27 -13 259 1 273 6 6 10 17 10 25 0 42 117 131 172 131
9 0 32 7 51 15 42 17 110 20 138 5 19 -11 89 3 114 21 16 12 626 16 1250 10
528 -6 562 -7 592 -25 27 -17 35 -18 62 -6 33 13 101 6 101 -10 0 -6 7 -10 15
-10 17 0 87 -69 80 -80 -3 -4 2 -11 10 -14 17 -6 35 -46 40 -88 2 -15 10 -51
18 -80 8 -29 18 -74 22 -100 l6 -47 677 0 677 -1 0 226 c0 163 -3 227 -12 232
-7 4 -17 28 -24 54 -11 41 -11 49 6 74 27 41 27 57 1 85 -12 13 -23 31 -24 39
0 8 -8 35 -17 59 -11 30 -14 58 -9 87 4 30 3 44 -5 44 -6 0 -11 7 -11 15 0 8
-5 15 -11 15 -5 0 -7 5 -4 10 3 6 2 10 -3 10 -6 0 -15 13 -20 29 -6 16 -25 44
-44 64 -19 19 -42 52 -51 73 -12 26 -34 50 -65 69 -26 17 -61 42 -79 58 -38
33 -236 137 -261 137 -10 0 -22 3 -26 7 -4 4 -26 13 -49 19 -74 21 -141 45
-169 60 -30 16 -58 18 -58 4 0 -24 -114 -3 -134 26 -10 14 -16 14 -35 5 -32
-18 -167 -8 -190 13 -23 21 -182 27 -189 8 -6 -19 -84 -14 -130 8 -40 20 -61
20 -1039 19 -549 0 -1008 -4 -1019 -9z"/>
<path d="M3656 16420 l-310 -5 -7 -27 c-4 -15 -17 -43 -29 -62 -11 -19 -23
-43 -25 -53 -5 -27 -87 -196 -102 -211 -7 -7 -13 -20 -13 -28 0 -8 -4 -14 -10
-14 -5 0 -10 -6 -10 -13 0 -6 -21 -53 -46 -102 -76 -149 -81 -159 -99 -200
-29 -68 -47 -99 -74 -125 -15 -14 -33 -43 -40 -65 -7 -22 -20 -48 -29 -57 -8
-10 -12 -18 -8 -18 4 0 1 -10 -6 -22 -6 -13 -13 -29 -14 -37 -2 -8 -20 -32
-42 -55 -22 -23 -44 -55 -50 -73 -6 -17 -33 -73 -61 -124 -28 -50 -51 -94 -51
-96 0 -2 -46 -97 -102 -211 -57 -114 -103 -212 -103 -217 0 -6 -14 -35 -31
-65 -17 -30 -35 -66 -39 -80 -4 -14 -15 -36 -25 -50 -9 -14 -22 -41 -30 -60
-7 -19 -19 -40 -27 -47 -8 -6 -13 -13 -12 -15 5 -9 -116 -241 -140 -267 -15
-16 -34 -51 -41 -76 -7 -25 -16 -45 -20 -45 -4 0 -15 -21 -25 -47 -10 -27 -34
-66 -55 -88 -21 -22 -43 -58 -50 -80 -7 -22 -28 -66 -47 -98 -19 -32 -36 -63
-37 -70 -7 -28 -88 -190 -106 -210 -11 -11 -20 -25 -20 -29 0 -9 -133 -288
-151 -318 -5 -8 -12 -24 -16 -35 -4 -11 -32 -69 -63 -130 -31 -60 -66 -136
-79 -167 -13 -32 -36 -78 -52 -103 -16 -25 -29 -51 -29 -58 0 -7 -18 -37 -40
-67 -21 -30 -51 -79 -66 -109 -26 -52 -41 -74 -74 -110 -19 -20 -93 -169 -97
-194 -3 -15 -70 -149 -92 -182 -4 -5 -8 -22 -10 -38 l-2 -27 789 0 c735 0 790
2 804 18 9 9 19 28 23 42 12 39 96 205 106 208 5 2 7 7 4 12 -3 4 2 13 10 20
8 7 15 16 15 21 0 15 105 225 120 239 3 3 27 55 54 115 27 61 56 116 65 123
12 10 328 12 1524 12 914 0 1506 -4 1502 -9 -3 -5 -1 -12 5 -16 5 -3 10 -13
10 -21 0 -8 18 -53 40 -99 22 -47 41 -88 42 -92 1 -5 10 -17 20 -27 10 -11 22
-33 28 -50 5 -17 28 -65 50 -106 22 -41 68 -130 103 -198 34 -67 70 -138 80
-157 l19 -35 753 0 c414 0 767 3 784 6 30 6 32 9 25 38 -3 17 -10 33 -13 36
-9 6 -49 63 -49 70 -4 29 -130 288 -145 297 -14 9 -110 176 -121 211 -4 13
-23 50 -42 84 -39 69 -143 275 -144 286 -1 8 -126 270 -139 292 -6 8 -42 78
-81 155 -39 77 -86 169 -104 205 -81 157 -186 376 -186 388 0 7 -13 33 -30 57
-16 24 -30 47 -30 50 0 19 -91 193 -109 210 -21 18 -111 191 -111 211 0 6 -12
26 -26 45 -14 19 -32 50 -41 69 -9 19 -25 45 -35 56 -23 26 -180 334 -170 334
4 0 2 4 -4 8 -6 4 -32 52 -58 107 -26 55 -55 116 -65 135 -58 109 -136 267
-136 276 0 6 -5 18 -12 25 -14 17 -93 184 -93 197 0 5 -7 15 -15 22 -8 7 -13
16 -10 20 3 5 2 10 -3 12 -10 4 -112 211 -112 226 0 7 -5 12 -11 12 -5 0 -7 5
-4 10 3 6 1 10 -6 10 -7 0 -9 3 -6 6 4 4 -2 19 -12 33 -10 14 -40 71 -65 126
-26 54 -50 102 -54 105 -7 4 -35 62 -33 67 0 2 -13 31 -29 65 -17 35 -30 68
-30 74 0 6 -9 19 -19 28 -17 16 -79 17 -812 19 -437 2 -933 0 -1103 -3z m922
-1086 c13 -4 22 -14 22 -26 0 -21 129 -291 180 -378 17 -28 30 -56 31 -63 0
-7 18 -46 40 -87 21 -41 55 -109 75 -150 20 -41 62 -120 93 -174 31 -55 56
-102 57 -105 4 -29 67 -166 89 -196 13 -16 26 -41 30 -55 7 -22 57 -121 91
-180 8 -14 39 -77 69 -140 31 -63 67 -130 81 -149 13 -19 21 -38 17 -42 -5 -4
-460 -9 -1013 -10 l-1005 -1 3 23 c1 13 9 30 16 38 19 22 226 428 226 444 0 7
16 37 36 67 19 30 53 93 76 140 114 242 442 890 450 890 5 0 6 4 3 10 -3 5 3
22 15 37 11 16 22 38 24 50 12 61 17 63 149 63 67 0 132 -3 145 -6z"/>
<path d="M8450 14789 l0 -1636 21 -27 c20 -25 21 -35 15 -104 -4 -42 -11 -81
-17 -87 -11 -11 -12 -45 -1 -45 12 0 30 -64 36 -129 3 -29 11 -60 18 -68 6 -8
11 -32 10 -53 -2 -21 2 -41 7 -44 5 -3 12 -25 16 -48 9 -50 21 -79 59 -137 15
-24 30 -51 31 -60 2 -9 4 -16 5 -16 1 0 3 -9 5 -19 10 -55 19 -73 53 -103 20
-18 41 -32 45 -33 10 0 57 -51 105 -112 22 -29 44 -48 56 -48 34 0 108 -33
135 -60 55 -54 71 -63 116 -65 31 -1 52 -9 69 -24 18 -17 44 -25 101 -32 43
-6 89 -16 104 -23 14 -7 46 -16 70 -20 24 -4 58 -17 75 -29 41 -29 76 -31 93
-7 18 26 88 27 116 3 15 -14 42 -19 135 -21 103 -3 120 -7 140 -25 28 -26 87
-30 156 -9 40 12 59 12 99 3 43 -10 51 -9 73 8 29 23 59 17 81 -15 l15 -23
975 2 c919 2 975 3 988 20 15 21 91 30 117 14 12 -8 21 -8 28 -1 9 9 31 8 180
-11 46 -6 62 -4 95 14 34 18 57 21 162 21 67 0 146 5 175 12 29 6 56 11 61 10
4 -1 7 2 7 7 0 12 63 24 131 26 30 1 61 5 69 10 7 4 35 9 61 9 49 1 63 9 97
55 14 18 29 24 69 26 60 4 96 21 154 75 24 22 56 43 71 46 15 4 43 24 63 45
20 22 41 39 47 39 17 0 79 50 73 59 -2 5 8 25 24 45 17 21 33 50 36 67 4 17
24 44 50 65 40 34 43 40 49 104 6 57 12 72 40 104 19 20 38 36 44 36 10 0 13
21 28 190 3 41 12 82 18 90 19 24 36 69 36 95 0 18 -5 25 -20 25 -18 0 -20 7
-20 62 0 48 4 66 20 83 20 22 21 29 20 1659 l0 1637 -700 2 -700 2 0 -50 c0
-27 -1 -662 -2 -1410 l-1 -1360 -24 -46 c-26 -54 -29 -79 -9 -79 11 0 13 -9 9
-37 -3 -21 -11 -41 -16 -44 -5 -4 -12 -42 -15 -85 -3 -59 -9 -84 -24 -100 -10
-12 -22 -39 -25 -60 -7 -44 -16 -54 -60 -78 -18 -9 -39 -26 -47 -38 -9 -12
-16 -18 -16 -13 0 6 -3 6 -8 -1 -13 -19 -90 -53 -109 -48 -10 3 -36 -6 -58
-21 -34 -24 -49 -27 -137 -29 -85 -2 -103 -6 -129 -26 -25 -18 -36 -20 -54
-12 -12 6 -28 7 -35 2 -16 -10 -46 -2 -61 16 -18 22 -66 17 -84 -8 -15 -22
-21 -23 -213 -26 -108 -1 -407 -3 -665 -4 -430 -1 -469 1 -486 17 -13 11 -27
14 -42 10 -13 -4 -19 -3 -16 2 10 15 -50 13 -88 -3 -41 -17 -91 -9 -122 19
-18 16 -30 18 -62 13 -21 -3 -46 -9 -54 -12 -9 -3 -27 7 -45 25 -32 34 -42 38
-42 16 0 -11 -8 -13 -32 -8 -18 3 -37 10 -42 14 -6 5 -29 9 -53 9 -58 0 -90
17 -103 54 -5 17 -30 53 -55 80 -25 26 -45 54 -45 60 0 7 -11 23 -24 35 -24
23 -46 87 -46 137 0 21 -4 25 -19 21 -18 -4 -20 4 -26 107 -3 61 -5 752 -3
1536 l3 1425 -702 0 -703 0 0 -1636z"/>
<path d="M21616 16422 c-3 -3 -6 -265 -6 -582 0 -445 3 -580 13 -593 11 -16
87 -17 1027 -20 l1015 -2 3 -1742 2 -1743 724 0 c569 0 726 3 733 13 4 6 6
792 5 1745 l-2 1732 1025 0 1025 0 0 600 0 601 -2779 -2 c-1529 0 -2782 -4
-2785 -7z"/>
<path d="M27928 16423 c-2 -5 -2 -1060 0 -2345 l2 -2338 730 0 730 0 0 2345 0
2345 -729 0 c-402 0 -731 -3 -733 -7z"/>
<path d="M30420 14115 c0 -1272 -3 -2327 -6 -2344 l-6 -31 724 0 725 0 0 73
c0 39 1 110 3 157 2 60 -2 98 -13 130 -15 41 -17 191 -17 1590 l-1 1545 67 -2
c37 -1 71 -6 74 -10 4 -4 15 -33 25 -64 11 -38 25 -61 40 -69 13 -7 38 -39 55
-71 24 -46 36 -59 54 -59 27 0 56 -50 56 -95 0 -44 18 -68 46 -61 18 5 26 2
30 -11 10 -35 39 -87 67 -122 16 -20 35 -50 42 -68 7 -17 31 -51 53 -75 23
-24 43 -55 47 -69 3 -13 31 -55 61 -92 29 -38 54 -72 54 -77 0 -6 25 -46 55
-91 30 -45 55 -86 55 -91 0 -6 7 -8 15 -5 21 8 53 -41 61 -94 8 -51 19 -69 44
-69 11 0 35 -29 65 -75 26 -41 51 -75 55 -75 5 0 11 -13 15 -30 4 -16 10 -30
14 -30 11 0 90 -107 104 -139 6 -14 33 -51 59 -82 26 -30 49 -68 52 -84 3 -16
21 -45 41 -65 20 -21 42 -57 49 -81 13 -41 16 -44 45 -41 25 2 31 -2 31 -17 0
-11 4 -22 9 -25 5 -3 12 -23 15 -43 13 -70 16 -75 41 -69 20 5 25 1 36 -31 10
-32 32 -63 80 -113 8 -9 25 -37 37 -61 12 -25 30 -54 40 -65 10 -10 33 -45 51
-77 18 -32 48 -77 65 -100 18 -23 46 -67 64 -98 17 -30 41 -64 52 -74 11 -10
20 -24 20 -32 0 -7 5 -13 11 -13 5 0 8 -4 5 -9 -4 -5 7 -15 23 -22 34 -15 59
-54 75 -118 10 -35 18 -47 37 -51 24 -6 93 -105 84 -120 -3 -4 4 -10 15 -13
10 -3 26 -20 35 -38 33 -70 49 -95 77 -118 15 -13 28 -29 28 -36 0 -16 66
-115 92 -137 19 -17 92 -18 1218 -18 659 0 1204 2 1212 5 11 4 13 403 11 2336
-2 1281 -5 2334 -7 2338 -3 5 -319 8 -702 7 l-697 -1 2 -1239 c1 -825 5 -1244
12 -1252 13 -16 12 -969 -2 -995 -8 -16 -21 -19 -74 -19 -56 0 -66 3 -77 23
-7 12 -11 25 -10 30 1 4 -2 7 -7 7 -5 0 -26 27 -47 60 -22 33 -42 60 -46 60
-5 0 -8 6 -8 14 0 13 -33 67 -123 201 -15 22 -43 63 -62 92 -19 28 -43 54 -53
57 -11 4 -27 32 -42 73 -18 48 -33 71 -53 82 -16 9 -38 34 -50 56 -12 22 -35
54 -51 72 -46 52 -56 68 -56 91 0 5 -13 24 -30 42 -16 18 -30 37 -30 42 0 4
-19 35 -42 69 -43 60 -81 120 -95 149 -4 8 -16 24 -26 35 -20 21 -87 122 -87
131 0 3 -21 31 -46 62 -26 31 -51 66 -56 77 -5 12 -22 29 -38 40 -22 15 -33
35 -46 84 -15 55 -22 65 -50 77 -18 8 -36 24 -40 36 -4 13 -9 25 -13 28 -20
16 -82 102 -101 140 -12 25 -37 63 -54 85 -18 22 -41 56 -52 75 -10 19 -21 37
-24 40 -14 14 -60 80 -56 80 19 0 -131 206 -157 215 -21 8 -42 47 -51 96 -5
28 -16 43 -46 63 -22 14 -40 33 -40 41 0 8 -16 32 -35 54 -19 21 -35 41 -35
45 0 4 -18 31 -40 61 -22 30 -38 55 -35 55 4 0 0 6 -7 14 -25 26 -98 143 -98
156 0 6 -4 10 -10 10 -5 0 -10 7 -10 15 0 8 -4 15 -10 15 -5 0 -21 21 -34 48
-13 26 -33 56 -45 66 -12 11 -37 47 -56 80 -60 103 -138 204 -180 233 l-40 28
-1202 2 -1203 1 0 -2313z"/>
<path d="M1289 10678 l-12 -23 24 20 c13 11 26 21 28 22 2 2 -3 3 -12 3 -9 0
-22 -10 -28 -22z"/>
<path d="M22504 10634 c-18 -14 -18 -14 6 -3 31 14 36 19 24 19 -6 0 -19 -7
-30 -16z"/>
<path d="M16607 10623 c-11 -11 -8 -20 7 -20 8 0 12 6 9 14 -6 15 -7 15 -16 6z"/>
<path d="M22443 10588 c-2 -16 1 -17 13 -8 17 15 17 17 1 23 -8 3 -14 -3 -14
-15z"/>
<path d="M9085 10520 c-4 -6 -11 -8 -16 -4 -5 3 -8 0 -7 -8 2 -7 -3 -12 -10
-10 -8 1 -11 -2 -7 -8 3 -6 11 -7 17 -4 8 5 9 1 5 -10 -4 -11 -3 -15 4 -11 6
4 8 13 5 21 -3 7 -1 16 4 19 5 3 10 -5 12 -17 3 -21 4 -21 9 5 6 28 -4 46 -16
27z"/>
<path d="M16449 10513 c-8 -9 -9 -14 -2 -10 6 4 13 4 16 0 2 -5 2 -2 0 6 -2 8
2 11 12 7 9 -3 13 -2 10 4 -9 15 -21 12 -36 -7z"/>
<path d="M9026 10472 c-3 -5 1 -9 9 -9 8 0 12 4 9 9 -3 4 -7 8 -9 8 -2 0 -6
-4 -9 -8z"/>
<path d="M8911 10427 c-8 -10 -7 -14 4 -14 8 0 12 4 9 8 -2 4 2 10 8 12 8 4 9
6 2 6 -6 1 -17 -5 -23 -12z"/>
<path d="M14707 10394 c-4 -4 -7 -15 -7 -25 0 -14 5 -16 27 -10 26 7 45 31 24
31 -6 0 -11 -5 -11 -12 0 -6 -6 -4 -13 6 -7 9 -16 14 -20 10z"/>
<path d="M14681 10364 c0 -11 3 -14 6 -6 3 7 2 16 -1 19 -3 4 -6 -2 -5 -13z"/>
<path d="M8753 10305 c0 -8 4 -12 9 -9 5 3 6 10 3 15 -9 13 -12 11 -12 -6z"/>
<path d="M8726 10291 c-3 -5 1 -14 8 -20 10 -9 16 -9 21 -1 4 6 1 9 -7 8 -7
-2 -12 3 -10 10 2 14 -4 16 -12 3z"/>
<path d="M8695 10259 c-4 -6 -4 -13 -1 -16 3 -4 6 -1 6 6 0 7 5 9 12 5 7 -4 8
-3 4 4 -9 15 -13 15 -21 1z"/>
<path d="M8427 10113 c-3 -4 3 -18 13 -31 l19 -23 -2 27 c-2 27 -20 43 -30 27z"/>
<path d="M21678 10077 c-3 -19 -2 -25 4 -19 6 6 8 18 6 28 -3 14 -5 12 -10 -9z"/>
<path d="M8400 10070 c-7 -14 -7 -20 0 -20 5 0 10 7 10 16 0 8 5 12 10 9 6 -4
7 -11 4 -17 -4 -7 -2 -8 5 -4 9 6 9 11 0 22 -15 18 -16 18 -29 -6z"/>
<path d="M8262 9983 c2 -10 -3 -17 -9 -15 -7 1 -13 -2 -13 -8 0 -14 17 -12 27
3 11 18 12 37 2 37 -6 0 -9 -8 -7 -17z"/>
<path d="M21340 9876 c7 -7 3 -18 -13 -35 l-22 -26 28 24 c30 27 35 48 12 48
-11 0 -12 -4 -5 -11z"/>
<path d="M21309 9878 c0 -2 -2 -11 -4 -21 -3 -15 -1 -16 11 -6 7 6 11 15 8 20
-5 9 -13 12 -15 7z"/>
<path d="M20996 9659 c3 -5 10 -6 16 -3 7 5 9 1 5 -9 -4 -11 -2 -14 9 -10 15
5 20 22 7 24 -5 0 -16 2 -26 4 -9 2 -15 -1 -11 -6z"/>
<path d="M20984 9630 c0 -13 4 -16 10 -10 7 7 7 13 0 20 -6 6 -10 3 -10 -10z"/>
<path d="M6008 9523 c-10 -2 -18 -9 -18 -14 0 -6 8 -5 20 1 11 6 20 13 20 15
0 3 -1 4 -2 4 -2 -1 -11 -3 -20 -6z"/>
<path d="M20795 9500 c-3 -6 1 -7 9 -4 18 7 21 14 7 14 -6 0 -13 -4 -16 -10z"/>
<path d="M20485 9300 c-4 -6 -12 -7 -18 -3 -7 4 -7 1 1 -9 8 -10 20 -14 30
-11 10 4 12 8 4 11 -7 2 -10 8 -6 13 3 5 3 9 0 9 -3 0 -8 -5 -11 -10z"/>
<path d="M7122 9225 c-11 -24 -10 -25 8 -15 11 6 17 16 14 25 -8 20 -9 19 -22
-10z"/>
<path d="M14516 9231 c-12 -13 -14 -21 -6 -26 6 -4 14 -4 17 -1 4 3 1 6 -7 6
-10 0 -10 3 0 15 7 8 17 12 23 8 6 -3 7 -1 3 5 -9 15 -10 15 -30 -7z"/>
<path d="M12660 9005 c0 -9 -10 -20 -22 -25 -18 -8 -18 -9 -4 -7 21 2 56 47
37 47 -6 0 -11 -7 -11 -15z"/>
<path d="M19855 8885 c-16 -8 -25 -14 -20 -15 6 0 3 -4 -5 -10 -8 -5 -12 -11
-9 -14 3 -3 21 8 40 24 38 33 37 34 -6 15z"/>
<path d="M12136 8651 c-4 -5 3 -7 14 -4 23 6 26 13 6 13 -8 0 -17 -4 -20 -9z"/>
<path d="M6152 8587 c-11 -13 -11 -43 1 -52 4 -3 5 -2 2 2 -3 3 1 13 8 21 9
13 9 14 0 8 -7 -4 -13 -3 -13 3 0 5 8 15 18 20 9 6 12 11 6 11 -6 0 -16 -6
-22 -13z"/>
<path d="M6026 8485 c-11 -8 -15 -15 -9 -15 6 0 16 7 23 15 16 19 11 19 -14 0z"/>
<path d="M5980 8465 c-6 -8 -10 -19 -8 -24 1 -6 8 1 15 14 13 28 11 31 -7 10z"/>
<path d="M5820 8368 c0 -4 5 -8 11 -8 5 0 8 -4 5 -9 -4 -5 1 -8 11 -7 27 4 24
32 -3 32 -13 0 -24 -4 -24 -8z"/>
<path d="M5651 8264 c-12 -15 -21 -32 -20 -38 0 -7 3 -6 6 2 2 6 10 9 15 6 7
-4 8 -2 4 5 -4 6 -1 14 8 17 16 6 30 34 16 34 -5 0 -18 -12 -29 -26z"/>
<path d="M5518 8163 c7 -3 16 -2 19 1 4 3 -2 6 -13 5 -11 0 -14 -3 -6 -6z"/>
<path d="M18749 8162 c-1 -4 -2 -14 -3 -22 0 -9 -9 -14 -20 -12 -10 2 -15 -1
-12 -7 4 -5 -2 -14 -11 -20 -10 -6 -14 -11 -9 -11 14 0 75 43 80 57 3 6 -2 14
-10 17 -8 3 -15 2 -15 -2z"/>
<path d="M12720 8032 c0 -19 3 -21 19 -12 11 5 23 16 27 23 5 7 1 6 -10 -2
-15 -13 -19 -13 -27 0 -7 11 -9 9 -9 -9z"/>
<path d="M18560 8010 c-9 -6 -10 -10 -3 -10 6 0 15 5 18 10 8 12 4 12 -15 0z"/>
<path d="M12577 7946 c-21 -16 -21 -22 0 -30 10 -4 14 -4 10 0 -4 4 -2 13 5
21 15 19 7 24 -15 9z"/>
<path d="M5040 7849 c0 -5 -4 -7 -10 -4 -5 3 -10 1 -10 -4 0 -16 16 -13 30 4
9 10 9 15 1 15 -6 0 -11 -5 -11 -11z"/>
<path d="M12270 7729 c0 -5 5 -7 10 -4 6 3 10 8 10 11 0 2 -4 4 -10 4 -5 0
-10 -5 -10 -11z"/>
<path d="M12241 7716 c-7 -8 -8 -17 -3 -20 6 -3 12 3 15 14 6 24 4 25 -12 6z"/>
<path d="M12096 7621 c-4 -5 3 -7 14 -4 23 6 26 13 6 13 -8 0 -17 -4 -20 -9z"/>
<path d="M17873 7575 c0 -19 41 -20 56 -1 9 11 6 14 -14 14 -15 0 -22 -5 -18
-12 4 -7 1 -6 -8 1 -13 10 -16 10 -16 -2z"/>
<path d="M11930 7505 c-11 -13 -10 -14 4 -9 9 3 16 10 16 15 0 13 -6 11 -20
-6z"/>
<path d="M11925 7470 c4 -6 11 -8 16 -5 14 9 11 15 -7 15 -8 0 -12 -5 -9 -10z"/>
<path d="M17565 7360 c-3 -6 1 -7 9 -4 18 7 21 14 7 14 -6 0 -13 -4 -16 -10z"/>
<path d="M10075 7296 c-20 -21 -26 -36 -16 -36 6 0 15 9 21 21 13 24 10 32 -5
15z"/>
<path d="M17461 7291 c-7 -5 -11 -15 -9 -22 3 -10 8 -7 17 9 13 24 12 26 -8
13z"/>
<path d="M17280 7170 c0 -6 -10 -15 -22 -20 -13 -5 -16 -9 -8 -9 16 0 50 22
50 33 0 3 -4 6 -10 6 -5 0 -10 -5 -10 -10z"/>
<path d="M9500 6915 c-11 -13 -10 -14 4 -9 9 3 16 10 16 15 0 13 -6 11 -20 -6z"/>
<path d="M16145 6421 c3 -5 -5 -17 -17 -25 -12 -9 -18 -16 -13 -16 6 0 24 11
40 25 29 23 29 24 7 25 -13 0 -21 -4 -17 -9z"/>
<path d="M10150 6330 c-13 -8 -12 -10 3 -10 9 0 17 5 17 10 0 12 -1 12 -20 0z"/>
<path d="M9655 6000 c-3 -5 -1 -10 4 -10 6 0 11 5 11 10 0 6 -2 10 -4 10 -3 0
-8 -4 -11 -10z"/>
<path d="M8110 5979 c0 -5 5 -7 10 -4 6 3 10 8 10 11 0 2 -4 4 -10 4 -5 0 -10
-5 -10 -11z"/>
<path d="M9485 5890 c-3 -6 1 -7 9 -4 18 7 21 14 7 14 -6 0 -13 -4 -16 -10z"/>
<path d="M9339 5783 c-13 -16 -12 -17 4 -4 9 7 17 15 17 17 0 8 -8 3 -21 -13z"/>
<path d="M921 5576 c-1 -25 3 -47 9 -51 7 -4 10 3 7 22 -2 15 0 33 4 39 6 7 4
16 -4 22 -11 9 -14 3 -16 -32z"/>
<path d="M7466 5551 c-4 -7 -5 -15 -2 -18 9 -9 19 4 14 18 -4 11 -6 11 -12 0z"/>
<path d="M1266 5183 l-29 -5 42 -19 c47 -21 71 -24 71 -10 0 10 -41 42 -50 40
-3 -1 -18 -4 -34 -6z"/>
</g>
</svg>
