<?xml version="1.0" standalone="no"?>
<!DOCTYPE svg PUBLIC "-//W3C//DTD SVG 20010904//EN"
 "http://www.w3.org/TR/2001/REC-SVG-20010904/DTD/svg10.dtd">
<svg version="1.0" xmlns="http://www.w3.org/2000/svg"
 width="800.000000pt" height="800.000000pt" viewBox="0 0 800.000000 800.000000"
 preserveAspectRatio="xMidYMid meet">

<g transform="translate(0.000000,800.000000) scale(0.100000,-0.100000)"
fill="#000000" stroke="none">
<path d="M45 7980 c3 -5 -3 -15 -15 -22 -17 -11 -20 -23 -20 -85 0 -68 12 -95
26 -59 3 8 12 17 21 20 12 5 14 1 9 -19 -4 -14 -2 -25 4 -25 16 0 52 -79 45
-101 -4 -13 4 -36 24 -68 36 -56 39 -76 11 -91 -11 -6 -20 -15 -20 -20 0 -5
30 -52 66 -106 37 -53 67 -102 68 -109 1 -13 -106 -105 -123 -105 -5 0 -14 -7
-19 -16 -12 -21 54 -88 77 -78 42 17 50 16 44 -4 -7 -28 65 -121 94 -121 22
-1 40 -32 28 -51 -3 -5 -1 -19 5 -31 8 -14 9 -24 2 -31 -11 -11 -104 112 -131
174 -18 43 -30 47 -55 19 -17 -18 -16 -21 18 -68 20 -26 49 -71 66 -99 17 -28
39 -59 49 -68 17 -15 19 -15 41 4 13 11 28 19 34 17 20 -7 18 -48 -3 -66 -18
-16 -29 -41 -17 -41 12 0 98 55 102 65 3 7 -5 29 -17 50 -22 37 -22 38 -3 52
32 24 49 12 46 -31 -3 -32 -1 -38 13 -32 9 3 22 6 29 6 7 0 18 10 23 23 9 18
7 25 -16 44 -28 23 -24 45 12 67 24 15 38 -8 30 -48 -6 -31 -2 -32 52 -10 12
5 5 -6 -17 -28 -44 -41 -45 -46 -18 -90 11 -18 20 -42 20 -53 0 -13 -11 -1
-30 33 -32 54 -44 63 -54 37 -3 -8 -12 -15 -20 -15 -26 0 -23 -34 6 -68 28
-32 28 -35 13 -58 -15 -23 -14 -26 24 -78 34 -46 38 -56 26 -66 -12 -10 -16
-8 -24 11 -5 13 -29 52 -55 86 -25 34 -48 74 -52 88 -8 30 -15 31 -40 4 -18
-20 -18 -21 10 -75 16 -30 32 -54 37 -54 5 0 27 -29 50 -65 36 -58 43 -64 54
-49 15 22 45 12 45 -15 0 -11 -7 -24 -16 -29 -14 -8 -14 -13 -4 -32 8 -15 9
-25 2 -32 -7 -7 -17 2 -31 28 -12 22 -39 64 -61 94 -22 30 -40 63 -40 73 0 10
-7 20 -16 24 -8 3 -41 44 -73 92 -85 128 -152 225 -161 231 -4 3 -13 16 -20
30 -7 14 -35 58 -61 98 -27 40 -49 77 -49 82 0 14 -13 12 -35 -4 -19 -13 -19
-15 -1 -54 10 -23 29 -51 43 -64 13 -12 32 -41 43 -63 10 -22 30 -53 44 -69
14 -16 26 -33 26 -38 0 -4 15 -25 34 -45 18 -21 42 -56 54 -78 11 -22 29 -49
41 -59 12 -11 21 -24 21 -30 0 -6 18 -33 40 -61 22 -27 40 -55 40 -61 0 -5 13
-23 30 -39 32 -31 75 -113 64 -124 -3 -3 -11 3 -18 13 -6 10 -25 37 -41 60
-17 23 -59 84 -93 136 -34 52 -70 104 -81 115 -10 11 -29 40 -41 65 -13 24
-35 60 -50 80 -65 86 -108 146 -113 162 -4 11 -12 15 -22 12 -10 -4 -15 0 -15
13 0 11 -7 28 -15 39 -8 10 -15 27 -15 37 0 9 -4 17 -10 17 -6 0 -10 -28 -10
-64 0 -59 1 -64 20 -59 15 4 19 2 14 -10 -3 -9 -12 -18 -20 -21 -18 -7 -19
-76 -1 -100 10 -13 20 -16 35 -12 27 9 28 22 2 61 -22 33 -25 45 -11 45 5 0
21 -21 36 -47 l27 -48 -53 -46 c-51 -46 -52 -47 -30 -59 18 -9 21 -17 16 -41
-5 -22 -3 -29 8 -29 28 0 41 27 27 59 -18 43 -7 62 14 24 9 -18 23 -33 32 -33
25 0 28 32 7 72 -28 51 -16 48 30 -7 l37 -44 -27 -26 c-15 -14 -33 -25 -40
-25 -7 0 -13 -3 -13 -7 0 -10 -63 -53 -77 -53 -5 0 -15 10 -21 23 -12 24 -10
-2169 2 -2255 4 -28 2 -49 -4 -53 -5 -3 -10 -25 -9 -48 0 -31 2 -37 8 -22 8
20 8 20 15 0 5 -18 7 -83 4 -150 0 -11 0 -67 2 -125 2 -100 -4 -138 -22 -151
-23 -16 -3 -490 28 -657 5 -26 1 -41 -15 -63 -20 -26 -21 -39 -19 -142 l3
-112 40 -13 c22 -7 49 -17 60 -22 11 -5 60 -19 110 -30 50 -11 148 -39 218
-61 72 -23 132 -38 137 -33 5 5 27 60 50 123 51 139 148 345 182 386 13 17 41
55 61 86 40 60 134 172 150 178 6 2 2 -11 -9 -30 -11 -19 -27 -45 -35 -59 -8
-14 -24 -38 -37 -53 -12 -16 -22 -33 -22 -39 0 -5 -9 -22 -21 -36 -64 -84
-119 -166 -147 -218 -47 -89 -112 -231 -112 -244 0 -6 -9 -30 -21 -53 -27 -54
-84 -262 -109 -394 -32 -173 -41 -313 -33 -477 4 -83 8 -180 8 -216 l0 -64
-50 -9 c-69 -11 -77 -21 -71 -79 9 -80 19 -91 82 -86 61 5 62 4 63 -76 0 -44
-1 -47 -14 -30 -12 16 -17 17 -35 6 -42 -26 -178 -70 -236 -77 -32 -4 -68 -9
-79 -12 -11 -2 -42 -6 -69 -9 -27 -3 -53 -7 -58 -10 -4 -3 -8 -28 -8 -55 0
-43 2 -50 18 -45 9 3 51 8 92 11 131 9 212 17 310 31 84 12 96 12 106 -1 12
-16 29 -134 20 -142 -11 -11 -26 10 -26 36 0 24 -4 27 -37 28 -28 1 -43 -4
-55 -20 -10 -12 -18 -17 -18 -10 0 17 -30 4 -30 -12 0 -7 -15 -17 -32 -21 -47
-11 -52 -11 -66 -1 -8 7 -12 5 -12 -6 0 -17 -43 -31 -97 -31 -17 -1 -34 -4
-38 -8 -4 -3 -19 -2 -35 2 -16 4 -30 6 -32 4 -4 -3 -40 -11 -61 -13 -10 -1 -6
-130 4 -137 4 -2 29 1 56 7 26 6 77 12 113 14 36 2 65 4 65 5 0 2 192 10 233
10 12 0 22 5 22 11 0 7 12 9 30 7 21 -3 30 0 33 11 6 25 34 -47 57 -144 25
-105 25 -104 -1 -71 -12 15 -24 25 -27 22 -3 -3 -11 -1 -18 5 -10 8 -16 5 -25
-15 -11 -24 -16 -26 -60 -21 -33 4 -58 1 -78 -10 -17 -8 -50 -14 -74 -14 -24
1 -49 -1 -55 -5 -5 -3 -12 -2 -14 3 -2 7 -18 7 -43 1 -28 -6 -42 -5 -47 3 -5
8 -9 6 -13 -6 -5 -12 -11 -14 -25 -7 -19 10 -110 7 -129 -4 -6 -4 -11 -35 -11
-72 0 -61 1 -64 24 -64 14 0 28 -5 31 -10 5 -8 11 -7 21 1 7 6 20 9 28 6 8 -3
17 -1 19 6 3 9 8 9 20 -1 9 -8 24 -11 34 -8 10 3 57 8 106 11 48 3 113 12 145
19 73 18 143 26 137 17 -2 -5 18 -8 45 -7 46 1 50 3 50 25 l0 24 19 -24 c10
-13 30 -56 44 -95 14 -38 48 -121 76 -183 31 -69 51 -127 51 -149 0 -21 3 -54
6 -75 l7 -37 3173 0 3172 0 -15 30 c-15 31 -12 60 6 60 10 0 16 -6 50 -50 l20
-25 22 22 c13 12 21 24 18 25 -2 2 -17 10 -34 19 -16 10 -34 26 -40 38 -13 27
-33 27 -45 -1 -5 -13 -9 -17 -9 -10 -1 13 -41 18 -41 5 0 -11 -57 -42 -64 -35
-11 11 -6 51 11 87 15 31 15 39 4 57 -7 12 -18 51 -23 87 -22 159 -22 151 -4
151 18 0 56 -34 56 -50 0 -5 9 -10 20 -10 18 0 20 -7 20 -54 0 -30 5 -58 10
-61 11 -7 40 52 40 81 0 22 60 144 71 144 12 0 11 -13 -1 -45 -6 -15 -16 -56
-23 -91 -16 -77 -2 -87 35 -25 42 71 101 151 110 151 16 0 -2 -62 -43 -145
-21 -44 -39 -86 -39 -93 0 -15 25 -15 73 2 30 11 37 11 37 1 0 -7 -7 -15 -15
-19 -8 -3 -15 -12 -15 -21 0 -18 12 -19 28 -3 9 9 15 9 24 0 7 -7 19 -12 28
-12 8 0 26 -9 40 -20 31 -24 43 -25 32 -2 -5 9 -7 23 -5 30 3 7 -4 23 -15 35
-20 21 -42 68 -42 88 0 16 36 10 53 -9 10 -10 15 -21 12 -23 -7 -7 21 -93 31
-96 5 -2 29 22 53 52 24 30 48 55 53 55 17 0 -3 -64 -24 -81 -12 -10 -18 -21
-13 -28 5 -9 14 -6 31 10 13 12 27 19 31 15 5 -4 -8 -20 -27 -36 l-35 -29 23
-16 c12 -9 22 -24 22 -34 0 -23 33 -54 46 -42 5 5 47 6 94 2 l85 -7 -92 -8
c-80 -7 -93 -11 -93 -26 0 -15 8 -18 43 -18 23 0 55 -5 70 -11 16 -6 51 -11
78 -11 l49 0 3 143 c2 133 -2 400 -7 404 -1 1 -69 -7 -151 -17 -83 -11 -157
-17 -166 -15 -9 3 -29 1 -44 -5 -20 -7 -31 -7 -41 1 -10 8 -25 7 -59 -4 -67
-23 -54 -2 23 37 71 36 100 60 83 70 -5 3 -20 2 -33 -3 -13 -5 -36 -7 -51 -4
-15 3 -27 1 -27 -5 0 -5 -14 -15 -30 -21 -22 -7 -30 -7 -30 2 1 13 35 57 44
57 4 0 23 11 44 24 20 14 49 28 65 31 15 4 27 13 27 20 0 7 7 19 16 26 15 12
14 14 -7 20 l-24 7 23 7 c12 4 22 10 22 14 0 4 23 13 51 20 29 8 63 25 80 42
18 17 41 29 57 29 15 0 34 4 41 9 9 6 22 6 31 1 9 -5 26 -6 38 -3 22 5 22 7
22 284 l0 279 -48 -6 c-26 -4 -57 -13 -69 -20 -13 -8 -51 -17 -85 -20 -35 -3
-70 -8 -78 -12 -18 -7 -56 -14 -87 -16 -13 0 -23 -4 -23 -7 0 -5 -36 -5 -118
0 -9 1 -11 11 -6 36 3 19 3 35 -1 35 -21 0 -53 -60 -81 -148 -2 -7 -8 -11 -13
-8 -5 3 -6 33 -4 65 3 33 0 74 -6 92 -9 26 -8 35 4 49 10 11 16 39 16 81 1 35
7 91 15 124 10 43 13 108 10 228 l-4 169 39 74 c21 41 34 74 29 74 -6 0 -10
-3 -10 -8 0 -4 -13 -22 -30 -40 -38 -42 -50 -88 -50 -198 0 -85 -17 -158 -40
-174 -4 -3 -15 -26 -24 -51 -10 -25 -28 -57 -41 -71 -13 -14 -29 -47 -37 -74
-13 -45 -36 -65 -31 -26 2 9 5 73 7 142 13 320 28 508 41 531 3 4 10 65 16
135 5 71 16 165 24 209 18 102 29 268 16 240 -10 -20 -45 -312 -56 -460 -4
-44 -15 -115 -26 -158 -12 -52 -22 -147 -29 -285 -12 -253 -18 -312 -32 -312
-6 0 -8 -12 -5 -29 8 -39 -3 -103 -17 -98 -6 2 -14 17 -17 33 -5 26 -7 27 -14
9 -18 -44 -28 -48 -39 -14 -6 18 -17 34 -23 37 -16 4 -19 -118 -4 -133 11 -11
2 -105 -9 -105 -11 0 -19 43 -26 147 -4 53 -11 90 -16 87 -5 -4 -8 -27 -6 -52
2 -32 -1 -47 -11 -50 -12 -4 -13 16 -7 124 11 198 15 736 6 684 -5 -25 -9 -71
-9 -103 -1 -36 -5 -56 -11 -52 -5 3 -10 16 -11 28 -1 20 -2 20 -9 -3 -11 -35
-12 -110 -1 -110 6 0 12 15 14 33 3 28 4 26 5 -10 1 -25 -3 -43 -9 -43 -7 0
-9 -62 -5 -202 6 -209 1 -281 -18 -275 -6 2 -16 28 -21 57 -14 68 -31 76 -27
13 2 -46 2 -47 -11 -23 -20 34 -31 313 -16 400 12 75 4 166 -13 136 -5 -9 -7
-28 -4 -41 3 -13 2 -27 -4 -30 -5 -3 -10 2 -10 12 0 25 -28 144 -56 234 -22
74 -22 79 -8 160 19 101 13 325 -11 467 -9 51 -15 98 -13 104 5 13 97 37 116
30 7 -2 12 -18 13 -35 1 -18 4 -43 9 -57 l7 -25 7 30 c13 51 14 51 16 5 1 -25
5 -63 10 -85 7 -31 8 -18 6 57 -2 53 0 100 3 105 21 28 56 38 321 92 30 6 65
14 78 17 21 6 22 3 22 -47 0 -60 11 -59 19 3 7 49 22 59 114 79 40 9 64 9 75
3 11 -8 20 -6 34 8 21 21 88 25 88 6 1 -8 7 -5 15 6 11 14 46 23 157 40 l143
23 -4 159 c-1 88 -9 187 -16 220 l-13 59 -2 -90 c-2 -49 -2 -106 -1 -126 3
-47 -13 -58 -96 -70 -37 -5 -76 -12 -85 -15 -28 -8 -38 28 -38 136 0 120 -15
125 -24 8 -9 -107 -15 -140 -27 -132 -5 3 -9 1 -9 -4 0 -11 -96 -36 -109 -28
-5 4 -13 0 -18 -7 -9 -15 -120 -44 -130 -33 -4 4 -6 24 -5 44 2 36 1 35 -12
-11 -7 -26 -15 -49 -18 -52 -2 -3 -36 -11 -74 -19 -38 -8 -115 -26 -172 -40
-57 -14 -128 -29 -158 -32 l-54 -7 -1 89 c-1 49 0 129 1 178 2 88 -17 481 -26
564 -3 24 -8 41 -11 38 -8 -8 -5 -120 8 -341 12 -190 9 -252 -13 -239 -8 5 -9
0 -5 -17 4 -13 10 -81 13 -151 6 -115 5 -128 -9 -128 -14 0 -17 10 -17 53 0
35 -3 47 -9 37 -6 -8 -9 -32 -9 -53 0 -21 -4 -42 -8 -47 -11 -10 -144 -31
-155 -24 -5 3 -13 23 -19 46 -7 22 -23 59 -37 82 -28 44 -117 136 -132 136
-11 0 -168 105 -201 135 -42 38 -209 155 -221 155 -6 0 -59 33 -118 73 -109
75 -199 125 -351 193 -47 21 -94 45 -105 55 -23 19 -157 79 -177 79 -8 0 -19
5 -26 12 -7 7 -12 9 -12 6 0 -12 -134 32 -171 56 -21 14 -51 50 -70 82 -34 61
-36 76 -25 211 4 48 2 79 -5 92 -7 11 -9 26 -4 37 4 11 7 29 6 41 -1 12 3 40
9 62 9 36 12 76 8 146 -1 11 5 63 12 115 31 230 37 403 16 493 -21 90 -20 114
4 127 21 11 97 3 118 -13 6 -5 12 -18 12 -28 0 -28 32 -39 117 -39 78 0 79 0
90 30 11 29 13 30 76 30 64 0 65 -1 76 -31 l10 -30 108 6 c59 4 111 10 115 14
3 3 8 17 10 31 3 27 28 37 95 39 37 1 42 -2 52 -30 10 -28 14 -31 43 -26 18 3
60 9 93 12 85 9 93 13 97 43 4 33 38 52 96 52 36 0 44 -4 52 -25 11 -29 27
-30 135 -11 66 11 71 14 81 44 14 44 23 51 77 58 43 6 51 4 76 -20 l27 -26 80
18 c78 18 79 18 84 52 4 29 11 37 40 47 52 18 84 15 110 -7 26 -23 37 -24 100
-9 113 25 120 29 120 54 0 36 31 61 85 69 44 7 50 5 77 -22 l30 -29 58 14 c32
7 73 15 92 17 29 3 34 7 39 40 3 20 10 41 15 46 5 5 36 11 69 12 l60 3 23 -45
c12 -24 22 -37 22 -28 0 12 15 17 68 23 38 4 75 10 82 15 11 7 13 90 11 477
-2 449 -5 494 -31 478 -6 -4 -97 -11 -260 -20 -58 -3 -163 -10 -235 -15 -71
-5 -202 -14 -290 -20 -88 -6 -286 -19 -440 -30 -154 -11 -327 -22 -385 -25
-58 -3 -186 -13 -285 -21 -99 -8 -207 -17 -240 -19 -110 -6 -318 -26 -326 -30
-4 -3 -130 -8 -281 -10 -214 -5 -277 -3 -289 7 -28 23 -72 140 -79 208 -3 36
-12 76 -20 90 -27 50 -132 170 -149 170 -5 0 -19 16 -32 35 -13 19 -28 35 -32
35 -5 0 -29 17 -55 39 -26 21 -64 44 -84 51 -21 6 -61 34 -90 62 -84 81 -182
160 -186 148 -4 -12 -42 -14 -42 -2 0 11 -93 40 -152 48 -30 4 -85 -1 -160
-16 -215 -41 -305 -70 -364 -115 -18 -14 -39 -25 -46 -25 -8 0 -18 -4 -23 -9
-6 -5 -35 -19 -65 -32 -59 -25 -105 -66 -197 -180 -90 -110 -110 -141 -116
-175 -6 -29 -4 -31 19 -26 25 4 25 4 12 -19 -7 -13 -18 -27 -24 -31 -12 -8
-29 -56 -26 -70 1 -5 -2 -8 -8 -8 -5 0 -10 -11 -10 -25 0 -17 4 -23 15 -19 11
5 10 -6 -8 -45 -13 -29 -29 -51 -38 -51 -25 0 -39 -22 -39 -61 0 -38 -23 -71
-33 -47 -3 7 -6 -21 -6 -63 -1 -44 5 -91 13 -110 7 -19 17 -60 21 -91 3 -32
10 -58 15 -58 11 0 44 70 47 100 1 14 3 37 3 53 1 15 6 27 11 27 6 0 8 4 5 9
-3 5 0 11 7 14 8 3 15 22 16 44 2 21 3 46 4 56 1 9 6 17 12 17 18 0 53 45 64
82 27 88 66 177 97 220 39 54 40 58 19 58 -14 0 -14 4 0 37 18 43 52 83 71 83
7 0 18 -13 26 -30 15 -35 14 -35 71 -15 25 8 71 19 103 25 114 18 329 58 344
64 16 6 270 37 335 41 22 2 72 6 110 11 39 5 73 9 77 9 6 0 47 -32 114 -89 19
-15 34 -34 34 -42 0 -8 7 -14 15 -14 8 0 15 -4 15 -8 0 -5 8 -17 18 -28 29
-33 56 -77 81 -129 13 -27 30 -62 37 -77 8 -14 17 -48 21 -75 3 -26 14 -67 25
-91 10 -24 18 -54 18 -67 0 -12 6 -28 14 -34 22 -18 73 -238 60 -259 -15 -23
-49 -30 -41 -8 3 8 2 18 -3 21 -6 4 -10 15 -10 26 0 10 -11 29 -25 41 -15 13
-25 32 -25 49 0 20 -4 27 -14 23 -8 -3 -17 0 -21 6 -9 14 -110 3 -145 -16 -14
-7 -43 -18 -65 -24 -22 -6 -58 -23 -80 -38 -37 -26 -40 -32 -43 -80 -3 -47 -1
-52 17 -52 11 0 38 6 58 14 50 19 111 27 118 16 3 -5 18 -4 35 1 37 14 75 8
75 -11 0 -14 -23 -22 -115 -40 -25 -5 -88 -20 -141 -34 -53 -14 -111 -24 -128
-21 -17 2 -34 -2 -38 -9 -5 -6 -35 -25 -67 -41 -66 -33 -72 -34 -301 -17 -72
6 -137 6 -146 1 -9 -4 -52 -12 -95 -18 -44 -5 -92 -15 -107 -20 -15 -6 -42
-11 -60 -12 -18 -1 -46 -7 -62 -15 -126 -54 -127 -54 -178 -48 -36 5 -58 15
-75 33 -25 26 -80 36 -94 17 -4 -6 -12 -5 -21 2 -20 17 -47 -10 -40 -38 8 -29
73 -61 97 -48 57 32 146 26 191 -12 11 -9 32 -24 48 -33 15 -10 27 -23 27 -30
0 -7 9 -23 19 -34 11 -12 30 -45 43 -75 31 -73 60 -107 100 -119 90 -25 346 1
423 44 52 29 113 145 122 232 3 33 9 67 14 76 9 18 54 30 76 22 11 -4 45 -62
49 -83 2 -11 16 -46 22 -56 88 -142 149 -162 345 -109 230 61 264 87 274 209
5 60 22 116 35 116 3 0 12 -26 18 -57 6 -32 13 -65 16 -73 3 -8 10 -94 16
-190 16 -255 16 -262 10 -300 -4 -28 -7 -31 -13 -15 -5 12 -6 1 -2 -25 3 -25
9 -49 13 -53 12 -13 -1 -57 -17 -57 -10 0 -14 -7 -10 -20 3 -11 2 -20 -1 -20
-4 0 -7 -22 -7 -49 0 -41 -5 -54 -28 -75 -15 -14 -34 -23 -42 -20 -8 4 -27 -1
-41 -11 -24 -16 -27 -16 -44 0 -32 29 -44 80 -30 133 7 28 9 71 4 110 -6 60
-9 67 -58 114 -28 28 -70 63 -94 80 -23 16 -42 33 -42 38 0 6 -5 10 -12 10 -6
0 -19 7 -28 15 -31 28 -108 63 -146 66 -36 4 -39 2 -35 -21 3 -26 24 -46 29
-30 4 10 41 -7 76 -35 20 -15 20 -15 0 -29 -10 -8 -37 -15 -59 -14 -34 0 -47
-6 -84 -41 l-44 -41 -116 0 c-64 1 -124 1 -133 0 -19 -2 -47 -30 -29 -30 6 0
11 -7 11 -15 0 -8 5 -15 10 -15 6 0 10 -9 10 -21 0 -11 -4 -17 -10 -14 -5 3
-25 -1 -42 -11 -59 -31 -68 -34 -84 -34 -8 0 -29 -13 -45 -29 -30 -30 -44 -27
-32 6 11 31 52 88 97 136 29 32 50 67 64 109 38 116 1 90 -95 -68 -40 -65 -85
-139 -100 -164 -35 -56 -43 -155 -19 -212 9 -21 18 -38 20 -38 2 0 2 17 0 38
-3 20 -1 43 5 51 8 12 13 12 37 -3 27 -18 27 -18 56 13 37 39 67 44 42 6 -16
-24 -16 -27 1 -45 19 -21 55 -27 55 -10 0 20 55 61 77 57 21 -4 52 17 41 28
-3 3 -29 1 -58 -5 -68 -13 -90 -13 -90 1 0 23 36 38 88 39 29 0 69 7 89 15 19
8 46 15 59 15 13 0 24 4 24 9 0 4 29 11 65 15 36 4 72 9 80 12 9 4 15 0 15 -9
0 -8 7 -20 15 -27 14 -12 13 -15 -11 -30 -30 -20 -18 -35 18 -22 30 12 48 5
48 -18 0 -32 -11 -50 -31 -50 -10 0 -19 -4 -19 -10 0 -12 27 -13 34 -1 3 5 14
7 24 5 9 -2 23 0 31 5 11 7 10 13 -4 34 -20 32 -10 52 28 52 27 1 35 -9 17
-20 -5 -3 -10 -18 -10 -32 0 -23 3 -25 28 -19 15 4 32 7 39 8 7 1 10 5 7 10
-4 5 3 12 13 14 11 3 27 21 38 40 19 36 45 46 45 16 0 -10 9 -36 19 -58 20
-42 18 -88 -6 -112 -7 -7 -13 -21 -13 -30 0 -10 -6 -27 -14 -38 -8 -11 -16
-33 -19 -50 -2 -16 -6 -36 -9 -44 -3 -8 -11 -34 -17 -56 -6 -23 -18 -44 -26
-48 -18 -6 -45 19 -45 43 0 9 -9 34 -20 56 l-20 39 22 14 c21 12 20 13 -17 8
-22 -3 -41 -10 -43 -16 -2 -5 -7 -8 -12 -5 -5 3 -38 -2 -75 -10 -36 -9 -70
-13 -75 -10 -5 3 -14 -4 -20 -15 -6 -11 -17 -20 -25 -20 -20 0 -28 -40 -16
-74 6 -15 11 -43 11 -61 0 -19 9 -49 20 -67 11 -18 20 -41 20 -50 0 -20 -26
-24 -33 -5 -2 8 -22 11 -56 10 -42 -1 -57 3 -78 23 -14 13 -29 24 -34 24 -4 0
-23 14 -41 31 -18 17 -48 37 -65 45 -22 10 -33 21 -33 35 0 11 -15 39 -34 62
-18 23 -45 65 -60 94 -18 37 -30 51 -41 47 -8 -4 -16 -14 -16 -23 -6 -89 -30
-119 -90 -116 -41 2 -142 62 -153 91 -3 8 -14 14 -24 14 -10 0 -30 12 -44 27
-13 16 -41 43 -61 61 -22 19 -37 42 -37 55 0 12 -11 39 -25 59 -14 20 -25 48
-25 61 0 14 -3 39 -6 56 -6 26 -11 31 -33 29 -15 -1 -32 1 -39 6 -7 4 -12 2
-12 -4 0 -19 30 -70 41 -70 6 0 7 5 3 12 -4 6 -3 8 3 5 6 -4 6 -28 1 -64 -5
-32 -10 -70 -10 -85 -1 -27 -18 -30 -18 -2 0 8 -6 14 -14 14 -7 0 -16 10 -20
23 -9 34 -7 42 6 29 19 -19 28 -14 28 13 0 14 -6 25 -14 25 -17 0 -66 -45 -66
-62 0 -7 -24 -29 -53 -48 -52 -34 -169 -121 -197 -147 -43 -39 -139 -109 -255
-188 -377 -256 -523 -375 -461 -375 7 0 16 10 19 22 11 40 21 8 19 -57 -2 -57
0 -65 16 -65 10 0 23 -5 28 -10 13 -13 60 9 80 39 9 12 21 21 27 21 7 0 52 34
102 75 49 41 93 75 97 75 4 0 16 8 26 17 22 23 113 83 124 83 4 0 8 -4 8 -8 0
-9 -155 -127 -245 -187 -33 -21 -66 -47 -73 -57 -7 -10 -31 -27 -52 -38 -31
-16 -42 -29 -50 -59 -6 -23 -7 -48 -2 -62 9 -24 9 -24 16 -2 9 27 67 72 98 75
21 3 24 -2 32 -64 5 -38 13 -68 18 -68 4 0 8 6 8 14 0 8 14 17 30 21 l30 7 0
94 0 94 57 37 c85 54 85 54 99 -65 7 -57 15 -109 18 -115 4 -7 4 9 1 36 -4 37
-1 47 10 47 8 0 15 7 15 15 0 10 7 15 18 13 19 -3 19 -1 21 128 l1 80 52 43
c70 57 81 53 93 -37 6 -41 13 -70 18 -66 4 4 7 14 7 22 0 8 12 23 26 34 24 19
25 25 23 94 -3 61 0 76 16 95 27 29 94 71 104 64 5 -2 12 -25 15 -50 7 -42 25
-66 22 -28 0 10 4 18 11 18 17 0 42 36 43 60 1 18 3 17 24 -9 15 -18 27 -49
31 -82 3 -30 11 -56 16 -59 28 -18 -14 -151 -78 -245 -59 -87 -66 -95 -156
-168 -85 -69 -108 -79 -237 -107 -47 -10 -92 -24 -100 -31 -8 -7 -49 -28 -91
-48 -41 -20 -113 -60 -159 -91 -45 -30 -88 -55 -95 -55 -25 0 -101 -40 -125
-65 -27 -29 -94 -67 -103 -59 -3 3 -19 -2 -36 -11 -18 -9 -35 -13 -40 -11 -5
3 -16 -3 -25 -13 -16 -18 -102 -48 -111 -39 -2 2 -7 36 -11 74 l-7 70 40 42
c63 66 76 59 89 -51 7 -64 24 -87 24 -33 0 34 1 35 29 30 36 -8 39 5 30 116
-5 70 -4 88 9 103 13 14 13 20 4 26 -8 5 -13 32 -14 72 -1 69 -16 132 -17 71
-1 -30 -3 -32 -22 -22 -11 7 -27 27 -35 47 l-15 35 -27 -27 c-15 -15 -28 -22
-30 -15 -4 12 61 80 76 80 14 0 35 27 30 40 -4 14 -143 -82 -233 -161 -159
-140 -315 -282 -385 -348 -47 -44 -89 -79 -95 -78 -11 4 -21 45 -30 117 -5 39
-9 45 -30 46 -22 2 -24 -2 -27 -52 -4 -69 -21 -74 -29 -9 -18 147 -21 220 -8
208 7 -7 21 -13 32 -13 16 0 18 5 12 33 -11 47 -23 67 -44 67 -15 0 -19 17
-30 143 -7 78 -16 185 -21 237 -5 52 -10 115 -11 140 -1 25 -5 74 -10 110 -4
36 -10 125 -14 198 -6 138 -2 151 35 117 15 -13 16 -2 14 133 -2 130 -19 356
-29 371 -1 3 -6 74 -9 156 -4 83 -13 224 -21 315 -15 163 -45 554 -65 845 -20
293 -67 853 -76 923 l-6 42 -287 0 -286 -1 28 -23 c27 -22 27 -23 9 -39 -27
-25 -35 -21 -55 23 -16 35 -23 40 -51 40 -18 0 -38 -6 -45 -12 -11 -10 -14
-10 -18 0 -3 9 -37 12 -119 12 -72 0 -113 -4 -109 -10z m49 -70 c20 -35 32
-37 66 -10 32 25 44 25 23 0 -10 -11 -23 -20 -30 -20 -7 0 -21 -9 -31 -20 -24
-26 -44 -18 -67 24 -34 62 3 86 39 26z m446 -195 c12 -19 19 -39 15 -45 -9
-15 -35 -12 -35 5 0 8 -14 18 -30 22 -29 8 -30 9 -15 31 22 31 40 28 65 -13z
m-363 9 c-3 -3 -12 -4 -19 -1 -8 3 -5 6 6 6 11 1 17 -2 13 -5z m43 -88 c0 -5
-9 3 -20 17 -11 14 -20 29 -20 34 1 10 39 -39 40 -51z m460 -6 c0 -19 -19 -40
-35 -40 -7 0 -17 12 -24 26 -10 22 -9 30 5 45 16 18 18 18 36 3 10 -10 18 -25
18 -34z m-430 -31 c0 -6 -4 -7 -10 -4 -5 3 -10 11 -10 16 0 6 5 7 10 4 6 -3
10 -11 10 -16z m74 -29 c31 -47 30 -44 10 -64 -22 -23 -34 -20 -34 8 0 13 -10
30 -21 38 -19 12 -20 17 -10 36 16 31 24 28 55 -18z m221 -1 c9 -17 14 -38 11
-46 -6 -14 -8 -14 -24 1 -10 9 -26 16 -35 16 -21 0 -21 9 -1 38 20 30 30 28
49 -9z m-275 -131 c0 -4 15 2 34 13 19 11 36 16 39 12 4 -7 2 -53 -5 -118 -1
-5 14 -34 32 -63 62 -101 22 -63 -56 53 -44 64 -89 131 -101 148 -35 51 -26
55 17 7 22 -24 40 -48 40 -52z m166 61 c-3 -19 -1 -38 5 -46 7 -7 9 -17 5 -20
-15 -15 -43 55 -32 82 11 29 29 16 22 -16z m252 -3 c12 -24 12 -30 -2 -44 -14
-15 -18 -14 -37 7 -15 16 -19 29 -15 47 9 33 36 28 54 -10z m-207 -152 c21
-35 22 -36 2 -55 -19 -19 -19 -19 -46 22 -21 32 -25 45 -16 55 19 23 36 16 60
-22z m309 -4 c0 -5 -2 -10 -4 -10 -3 0 -8 5 -11 10 -3 6 -1 10 4 10 6 0 11 -4
11 -10z m40 -75 c0 -11 -14 7 -31 40 -7 13 -3 12 10 -5 11 -14 21 -29 21 -35z
m-240 -40 c0 -5 -9 1 -20 15 -11 14 -20 30 -20 35 0 6 9 -1 20 -15 11 -14 20
-29 20 -35z m-221 -66 c9 -16 40 -63 69 -104 28 -42 52 -80 52 -85 0 -21 -16
-8 -42 33 -15 23 -50 75 -77 116 -28 40 -51 76 -51 78 0 3 -9 16 -20 30 -11
14 -20 31 -20 37 0 14 68 -66 89 -105z m301 91 c0 -5 -2 -10 -4 -10 -3 0 -8 5
-11 10 -3 6 -1 10 4 10 6 0 11 -4 11 -10z m-151 -51 c17 -30 20 -40 8 -31 -23
19 -60 85 -45 80 7 -3 24 -24 37 -49z m-239 -65 c0 -8 -4 -14 -9 -14 -8 0 -16
16 -39 75 -2 6 8 -3 22 -18 14 -15 26 -35 26 -43z m207 -10 c18 -23 24 -26 32
-15 13 20 37 7 56 -30 12 -22 14 -34 6 -42 -7 -7 -12 -5 -17 6 -3 9 -13 17
-20 17 -12 0 -12 -4 -4 -21 21 -39 4 -42 -20 -3 -13 21 -27 41 -30 44 -14 12
-70 102 -70 113 1 12 25 -13 67 -69z m-301 18 c-9 -8 -26 10 -26 26 1 15 2 15
15 -2 8 -11 13 -21 11 -24z m484 -35 c-1 -13 -26 16 -41 48 -7 13 -1 10 15 -8
14 -15 26 -33 26 -40z m-336 -37 c14 -22 26 -44 26 -50 0 -15 -20 -12 -20 3 0
6 -9 23 -20 37 -17 22 -26 50 -16 50 2 0 15 -18 30 -40z m446 3 c21 -43 21
-43 17 -43 -3 0 -14 16 -26 35 -11 19 -17 35 -12 35 4 0 14 -12 21 -27z m-57
-51 c15 -26 17 -35 7 -47 -7 -8 -18 -15 -25 -15 -7 0 -16 -10 -19 -22 -7 -22
-7 -22 -15 -3 -10 23 -13 104 -4 117 10 17 37 3 56 -30z m-3 -134 c27 -29 27
-68 0 -68 -26 0 -54 43 -45 70 8 26 19 25 45 -2z m91 -121 c5 -12 25 -46 44
-74 19 -29 33 -53 30 -53 -5 0 -105 147 -105 155 0 13 22 -8 31 -28z m2199 7
c0 -3 -7 -12 -15 -20 -16 -17 -18 -14 -9 10 6 15 24 23 24 10z m-2240 -86 c1
-20 -17 -4 -39 35 l-23 42 30 -35 c17 -19 31 -38 32 -42z m2268 45 c-4 -24
-23 -27 -25 -3 -1 12 4 20 13 20 9 0 14 -7 12 -17z m-2308 -116 c0 -4 12 -25
26 -47 15 -22 25 -43 22 -46 -3 -3 -25 26 -48 63 -70 110 -74 121 -36 78 20
-22 36 -43 36 -48z m-512 48 c-3 -3 -9 2 -12 12 -6 14 -5 15 5 6 7 -7 10 -15
7 -18z m-8 -30 c28 -29 31 -36 20 -50 -32 -38 -47 -37 -69 6 -22 41 -20 79 3
79 7 0 27 -16 46 -35z m5645 18 c13 -13 18 -14 25 -3 5 7 13 9 21 4 7 -4 34
-7 59 -6 33 2 41 0 30 -7 -13 -9 -13 -11 1 -11 8 0 20 5 25 10 7 7 20 7 35 2
13 -4 61 -7 107 -6 45 0 85 -3 88 -7 7 -12 68 -11 80 1 15 15 91 15 109 0 11
-9 18 -10 28 -1 8 6 17 8 21 4 4 -4 39 -8 78 -10 45 -1 74 -7 80 -15 6 -10 8
-10 8 1 0 11 3 11 16 0 11 -9 17 -10 23 -1 8 13 46 9 46 -6 0 -20 12 -22 40
-8 22 12 32 12 43 4 7 -6 37 -12 65 -12 29 -1 57 -4 62 -8 6 -3 26 -6 46 -6
62 0 80 -10 73 -39 -9 -33 13 -22 26 13 5 13 14 24 20 24 6 0 6 -9 -1 -26 -5
-15 -7 -30 -3 -33 4 -3 9 0 11 7 4 10 8 8 18 -5 18 -24 30 -10 14 16 -7 11
-10 24 -6 28 5 4 11 3 15 -3 4 -6 17 -15 30 -18 16 -6 21 -13 17 -26 -5 -16
-1 -18 28 -16 43 4 60 14 53 32 -3 8 -1 14 4 14 9 0 12 -10 14 -54 1 -11 8
-20 16 -22 26 -5 109 -52 103 -58 -6 -6 12 -10 35 -7 14 2 16 -11 2 -25 -5 -5
-6 -15 0 -24 8 -12 10 -12 16 3 7 19 28 24 21 5 -2 -7 8 -18 22 -25 22 -10 23
-12 6 -12 -15 -1 -13 -5 13 -18 25 -12 31 -20 26 -35 -5 -17 -3 -18 15 -9 12
7 21 8 21 2 0 -5 -5 -11 -12 -13 -7 -3 -4 -7 7 -12 11 -4 16 -4 13 0 -4 3 -1
13 7 20 19 20 24 17 17 -8 -4 -18 -2 -20 14 -14 33 14 62 18 34 5 -14 -6 -41
-15 -60 -19 -46 -10 -444 -114 -610 -159 -41 -12 -113 -30 -160 -41 -47 -11
-98 -24 -115 -29 -16 -5 -64 -17 -105 -26 -41 -9 -88 -21 -105 -25 -28 -8 -99
-22 -350 -70 -60 -12 -166 -28 -235 -36 -156 -18 -628 -28 -776 -17 l-111 8 5
-48 c4 -40 1 -51 -17 -68 l-21 -20 7 61 c5 49 3 63 -10 73 -9 7 -17 33 -20 62
-7 66 -17 107 -32 125 -14 17 -14 13 -18 142 -3 95 -3 97 15 81 24 -22 43 -4
34 31 -7 30 -40 35 -55 9 -10 -17 -10 -16 -11 2 0 11 6 29 14 40 14 21 15 84
2 195 l-7 65 25 -27 c29 -32 38 -34 56 -13 7 8 25 15 39 15 30 0 97 53 87 69
-4 5 -2 12 3 16 5 3 15 -3 21 -12 9 -14 12 -15 17 -4 4 10 7 10 13 1 9 -15 80
-2 80 15 0 9 17 12 58 10 89 -4 94 -4 87 -15 -3 -5 2 -11 12 -12 56 -4 80 -4
100 3 13 5 25 4 28 -1 8 -13 62 -13 69 -1 3 5 46 12 95 16 63 5 91 11 95 21 7
18 11 18 31 -3z m275 7 c0 -5 -4 -10 -10 -10 -5 0 -10 5 -10 10 0 6 5 10 10
10 6 0 10 -4 10 -10z m-35 -10 c-3 -5 -11 -10 -16 -10 -6 0 -7 5 -4 10 3 6 11
10 16 10 6 0 7 -4 4 -10z m-5445 -54 c0 -6 -9 0 -20 14 -26 33 -25 52 0 21 11
-13 20 -28 20 -35z m196 -26 c15 -22 25 -43 22 -46 -3 -3 -17 15 -31 40 -32
57 -26 60 9 6z m6129 30 c-27 -12 -35 -12 -35 0 0 6 12 10 28 9 24 0 25 -1 7
-9z m-6886 -9 c17 -11 7 -61 -13 -61 -43 0 -59 27 -33 55 14 17 27 18 46 6z
m260 -102 c60 -91 68 -138 9 -55 -29 41 -33 44 -48 31 -19 -17 -40 -20 -40 -5
0 5 8 13 17 19 16 8 16 13 5 43 -40 98 -23 88 57 -33z m381 -11 c0 -20 -18 -4
-39 35 l-22 42 30 -35 c17 -19 31 -38 31 -42z m-495 42 c3 -5 1 -10 -4 -10 -6
0 -11 5 -11 10 0 6 2 10 4 10 3 0 8 -4 11 -10z m7035 0 c0 -5 -6 -10 -14 -10
-8 0 -18 5 -21 10 -3 6 3 10 14 10 12 0 21 -4 21 -10z m-7070 -30 c0 -13 -5
-18 -15 -14 -8 4 -15 12 -15 20 0 8 7 14 15 14 8 0 15 -9 15 -20z m564 -76
c21 -31 17 -59 -7 -59 -23 0 -52 47 -44 69 9 24 32 20 51 -10z m6772 -21 c-10
-11 -37 -12 -30 -2 3 5 12 9 21 9 9 0 13 -3 9 -7z m-6632 -45 c16 -31 16 -31
-4 -13 -11 10 -20 24 -20 32 0 21 7 15 24 -19z m-266 0 c19 -19 14 -46 -8 -53
-40 -13 -67 34 -32 54 22 13 26 13 40 -1z m92 -14 c0 -8 -4 -12 -10 -9 -5 3
-10 13 -10 21 0 8 5 12 10 9 6 -3 10 -13 10 -21z m126 -46 c8 -16 11 -28 6
-28 -9 0 -52 72 -52 86 1 11 27 -23 46 -58z m3831 45 c-9 -9 -19 -14 -23 -11
-10 10 6 28 24 28 15 0 15 -1 -1 -17z m-3908 -75 c9 -15 12 -30 8 -35 -13 -13
-62 21 -65 46 -3 19 0 22 19 19 13 -2 30 -15 38 -30z m137 -53 c9 -13 14 -30
12 -36 -2 -7 -14 4 -26 24 -24 41 -12 51 14 12z m3470 -102 c-10 -10 -19 5
-10 18 6 11 8 11 12 0 2 -7 1 -15 -2 -18z m384 -1 c0 -7 9 -30 20 -52 20 -39
18 -70 -5 -70 -6 0 -20 -9 -29 -19 -43 -47 -316 -110 -373 -86 -10 4 -28 7
-40 6 -13 -1 -23 3 -23 9 0 6 -7 18 -15 27 -8 8 -13 18 -10 22 8 14 126 43
143 36 9 -4 55 -6 101 -6 83 1 141 16 141 37 0 6 12 16 26 22 14 7 22 17 19
22 -4 6 -4 24 0 40 4 20 12 28 26 27 10 -1 19 -7 19 -15z m-812 -17 c16 -35
15 -45 -7 -64 -18 -16 -36 -85 -19 -75 5 3 6 -8 3 -24 -3 -21 0 -32 10 -36 34
-13 6 -65 -50 -94 -37 -19 -180 -42 -280 -46 -144 -5 -165 8 -201 124 -17 55
-17 56 -1 58 6 0 22 3 34 5 29 7 63 -3 63 -18 0 -7 14 -19 30 -27 17 -7 30
-19 30 -25 0 -7 2 -13 5 -13 19 0 112 24 122 32 7 5 17 7 22 3 12 -7 111 34
111 46 0 5 6 9 14 9 8 0 23 18 33 40 10 22 25 40 33 40 8 0 21 9 28 20 8 14 9
19 1 18 -6 -2 -13 5 -14 15 -2 9 1 15 6 11 5 -3 9 -1 9 5 0 5 -6 12 -12 14 -9
4 -7 6 3 6 9 1 21 -10 27 -24z m-188 -40 c14 -17 4 -55 -16 -55 -9 0 -14 11
-14 35 0 37 10 44 30 20z m745 5 c3 -5 -1 -10 -10 -10 -9 0 -13 5 -10 10 3 6
8 10 10 10 2 0 7 -4 10 -10z m-4470 -300 c3 -5 2 -10 -4 -10 -5 0 -13 5 -16
10 -3 6 -2 10 4 10 5 0 13 -4 16 -10z m55 -100 c28 -11 59 -20 69 -20 17 0 37
-27 28 -37 -5 -4 -157 66 -157 72 0 8 6 6 60 -15z m170 10 c12 -8 11 -10 -7
-10 -13 0 -23 5 -23 10 0 13 11 13 30 0z m837 -42 c-3 -7 -5 -2 -5 12 0 14 2
19 5 13 2 -7 2 -19 0 -25z m-810 -37 c12 -6 44 -11 72 -11 46 0 52 -3 66 -30
17 -33 25 -36 42 -19 8 8 8 20 3 35 -7 18 -6 24 4 24 20 0 27 -12 15 -27 -9
-10 -8 -13 5 -13 10 0 14 -4 11 -10 -3 -5 -1 -10 4 -10 6 0 11 -6 11 -14 0 -8
7 -16 15 -20 8 -3 15 -13 15 -21 0 -12 -6 -15 -22 -9 -47 14 -66 23 -73 33 -3
6 -14 11 -23 11 -9 0 -56 16 -105 37 -59 24 -86 41 -83 49 3 7 1 16 -4 19 -6
4 -10 12 -10 18 1 7 9 3 18 -9 10 -12 27 -26 39 -33z m4174 27 c22 -24 25 -47
7 -52 -54 -17 -68 -16 -68 3 0 30 18 71 31 71 6 0 20 -10 30 -22z m-3815 -163
c10 -8 27 -15 38 -15 10 0 31 -11 48 -25 29 -25 29 -25 5 -25 -13 0 -27 3 -31
7 -7 7 -60 28 -113 44 -18 6 -33 14 -33 19 0 15 64 12 86 -5z m2584 -55 c0 -5
-2 -10 -4 -10 -3 0 -8 5 -11 10 -3 6 -1 10 4 10 6 0 11 -4 11 -10z m-3186 -82
c3 -13 6 -48 5 -78 0 -67 -13 -43 -22 43 -7 56 5 79 17 35z m331 -28 c9 -40
22 -46 43 -20 l17 22 19 -21 c10 -11 19 -39 21 -63 4 -54 14 -113 26 -155 6
-17 12 -56 14 -85 8 -130 28 -346 45 -493 28 -234 30 -248 36 -383 3 -74 1
-122 -4 -118 -5 3 -9 24 -9 46 0 22 -5 45 -10 52 -6 7 -11 35 -12 62 0 27 -7
73 -16 103 -9 30 -15 62 -14 71 5 29 -12 94 -27 110 -20 19 -27 10 -28 -35 -1
-28 -6 -39 -18 -41 -14 -3 -18 3 -18 23 0 14 -5 36 -12 48 -19 36 -38 141 -27
148 7 4 7 21 3 45 -5 21 -7 43 -5 49 1 5 -5 33 -14 62 -9 30 -14 60 -11 68 3
8 1 17 -5 20 -6 4 -9 -15 -8 -49 1 -31 -1 -59 -4 -63 -4 -3 -7 9 -7 28 0 19
-4 49 -9 67 -6 18 -13 64 -17 102 -6 63 -5 68 12 67 25 -3 30 55 11 121 -10
34 -12 54 -5 66 6 10 12 37 14 60 2 22 5 46 6 51 1 6 -2 23 -6 38 -3 15 -2 27
3 27 5 0 12 -13 16 -30z m35 -11 c0 -14 -17 -10 -23 5 -4 10 -1 13 9 9 7 -3
14 -9 14 -14z m-347 -176 c18 -142 20 -176 9 -169 -11 6 -16 35 -27 154 -7 72
9 86 18 15z m3047 -83 c0 -5 -4 -10 -10 -10 -5 0 -10 5 -10 10 0 6 5 10 10 10
6 0 10 -4 10 -10z m-30 -25 c0 -2 -9 -9 -20 -15 -16 -9 -18 -8 -14 5 5 13 34
22 34 10z m-2395 -47 c2 -13 11 -54 20 -91 17 -77 12 -125 -11 -106 -8 6 -14
17 -14 23 0 6 -11 28 -25 47 -21 32 -23 41 -14 74 6 21 8 46 6 56 -4 14 0 19
14 19 11 0 21 -9 24 -22z m2345 13 c0 -13 -91 -81 -109 -81 -9 0 6 19 34 45
48 42 75 55 75 36z m50 -26 c0 -8 -7 -15 -15 -15 -26 0 -18 20 13 29 1 1 2 -6
2 -14z m-2496 -67 c18 -123 19 -168 3 -168 -16 0 -27 29 -27 73 0 16 -5 37
-10 48 -7 13 -7 25 0 38 7 14 7 22 0 26 -8 5 -7 11 1 21 17 20 26 9 33 -38z
m2426 12 c-37 -28 -50 -24 -15 4 17 13 32 22 35 19 3 -2 -6 -13 -20 -23z
m-2917 -57 c3 -27 13 -101 22 -167 9 -65 15 -135 13 -155 l-3 -36 -13 40 c-16
52 -29 155 -35 278 -5 99 6 127 16 40z m730 -8 c4 -22 3 -46 -2 -54 -15 -24
-25 14 -22 89 2 43 16 24 24 -35z m3324 -127 c-3 -8 -6 -5 -6 6 -1 11 2 17 5
13 3 -3 4 -12 1 -19z m-3377 -23 c0 -8 5 -15 10 -15 11 0 14 -49 4 -74 -6 -16
-25 -23 -23 -8 1 4 1 29 0 56 -1 38 -4 47 -16 42 -8 -3 -15 -1 -15 4 0 6 9 10
20 10 11 0 20 -7 20 -15z m294 -112 c4 -36 3 -63 -2 -63 -11 0 -22 84 -21 150
l1 45 8 -35 c4 -19 11 -63 14 -97z m2360 57 c16 -33 26 -67 22 -75 -3 -9 -1
-25 4 -35 7 -13 6 -27 -2 -44 -15 -34 -32 -20 -65 52 -18 41 -22 57 -13 67 6
8 11 22 10 32 -4 33 0 63 8 63 4 0 20 -27 36 -60z m-77 18 c-3 -7 -5 -2 -5 12
0 14 2 19 5 13 2 -7 2 -19 0 -25z m-3052 -54 c7 -39 3 -50 -14 -39 -13 8 -15
75 -2 75 5 0 12 -16 16 -36z m2335 17 c0 -12 -51 -53 -58 -46 -6 6 38 55 50
55 4 0 8 -4 8 -9z m872 -228 c6 -42 4 -48 -11 -38 -13 8 -15 75 -2 75 5 0 11
-17 13 -37z m-3022 -106 c0 -6 -7 -2 -15 9 -8 10 -14 30 -14 44 0 23 1 22 14
-9 8 -18 15 -38 15 -44z m1493 6 c-3 -18 -9 -30 -14 -27 -11 6 -12 58 -2 68
13 12 21 -9 16 -41z m1607 -34 c0 -10 -2 -19 -4 -19 -8 0 -46 67 -46 81 1 22
50 -39 50 -62z m1305 11 c7 0 18 -15 25 -34 6 -18 20 -42 30 -51 11 -10 20
-24 20 -31 0 -7 14 -27 32 -44 37 -38 86 -113 124 -190 41 -85 95 -211 106
-250 5 -19 14 -39 18 -45 4 -5 17 -37 28 -70 12 -33 35 -98 52 -145 17 -47 35
-103 41 -125 5 -22 18 -61 29 -87 11 -26 20 -59 20 -75 0 -15 7 -36 15 -47 8
-10 17 -39 21 -65 4 -25 11 -51 15 -57 5 -6 16 -36 25 -65 8 -30 21 -67 29
-84 7 -16 16 -46 20 -65 4 -19 15 -51 25 -70 10 -19 21 -51 25 -70 4 -19 13
-44 20 -55 7 -11 18 -42 25 -70 7 -27 16 -54 20 -60 3 -5 24 -64 44 -130 21
-66 44 -133 51 -150 7 -16 17 -48 21 -69 4 -22 16 -55 27 -73 10 -18 17 -40
13 -48 -3 -8 0 -18 7 -22 14 -9 32 -41 87 -149 42 -85 53 -141 25 -130 -10 4
-15 -1 -15 -14 0 -11 -7 -20 -15 -20 -8 0 -15 -4 -15 -10 0 -5 10 -10 23 -10
43 0 56 -22 59 -98 1 -25 6 -42 13 -42 6 0 17 -11 23 -24 15 -34 -10 -68 -43
-60 -23 6 -24 4 -22 -33 l2 -38 47 3 47 4 6 -46 c12 -76 -14 -102 -43 -43 -15
31 -29 35 -35 10 -17 -61 -17 -74 -2 -79 23 -9 18 -44 -9 -68 -24 -22 -43 -86
-26 -86 6 0 10 -29 10 -65 0 -36 -4 -65 -9 -65 -10 0 -51 100 -51 123 0 7 -8
40 -19 73 -137 434 -171 530 -182 513 -5 -9 -20 -2 -54 26 -26 21 -49 43 -51
49 -2 6 2 29 9 51 11 29 19 39 32 37 21 -4 22 -11 -36 148 -84 231 -121 326
-139 355 -10 17 -35 73 -55 125 -21 52 -41 100 -45 105 -5 6 -17 37 -28 70
-39 115 -71 196 -91 231 -12 19 -21 42 -21 50 0 8 -4 14 -8 14 -5 0 -34 45
-66 100 -32 55 -62 102 -66 105 -5 3 -14 22 -20 43 -7 20 -25 51 -40 67 -15
17 -38 50 -50 75 -12 25 -31 55 -42 67 -20 22 -54 175 -43 194 13 20 63 9 95
-21 18 -16 38 -30 45 -30 8 0 27 -11 43 -25 29 -25 52 -32 52 -17 0 12 -236
252 -248 252 -6 0 -23 11 -39 24 -30 25 -137 66 -173 66 -17 0 -19 4 -14 25 3
14 4 25 2 25 -19 0 -79 -41 -122 -84 -28 -28 -84 -80 -123 -115 -40 -35 -73
-71 -73 -79 0 -19 39 -62 55 -62 7 0 27 -7 45 -16 34 -18 88 -33 130 -38 41
-5 81 -28 78 -45 -2 -9 -11 -15 -20 -15 -10 1 -14 -4 -11 -12 3 -8 11 -14 18
-14 8 0 17 -5 21 -12 5 -8 2 -9 -10 -5 -16 6 -17 2 -11 -35 4 -24 11 -47 15
-53 13 -18 21 -203 8 -211 -7 -4 -8 -24 -3 -58 3 -28 6 -71 6 -96 -1 -62 14
-85 29 -45 21 52 51 139 59 170 16 56 31 85 46 91 23 9 28 -1 14 -25 -7 -11
-10 -24 -6 -28 5 -4 12 -2 16 5 6 10 11 9 22 -4 11 -13 11 -18 2 -21 -7 -3
-13 -11 -13 -19 0 -7 6 -11 14 -8 8 3 17 1 20 -4 5 -8 -32 -120 -53 -162 -4
-8 -16 -43 -27 -77 -10 -35 -22 -63 -26 -63 -5 0 -8 -7 -8 -15 0 -8 -10 -25
-21 -36 l-22 -22 27 -96 c15 -53 36 -117 47 -143 10 -26 19 -57 19 -70 0 -13
6 -32 14 -43 7 -11 32 -78 56 -150 23 -71 46 -139 51 -150 15 -34 60 -168 70
-207 5 -21 21 -72 35 -114 32 -97 27 -114 -10 -32 -16 35 -75 158 -131 273
-57 116 -120 248 -140 295 -20 47 -43 96 -51 110 -7 14 -24 45 -37 70 -12 25
-38 70 -57 100 -41 64 -180 342 -180 359 0 6 -13 29 -29 51 -15 21 -34 54 -42
72 -7 18 -21 42 -31 52 -10 11 -28 40 -40 65 -11 25 -36 71 -54 102 -19 31
-34 64 -34 72 0 8 -3 17 -7 19 -12 5 -53 93 -53 113 0 18 -30 62 -75 111 -13
14 -32 47 -42 72 -9 26 -20 49 -24 52 -4 3 -16 26 -27 50 -11 25 -33 62 -49
82 -42 52 -70 127 -52 139 11 7 11 11 1 21 -10 10 -15 10 -22 -2 -8 -12 -10
-10 -10 8 0 25 -31 91 -65 137 -12 17 -29 49 -38 72 -13 34 -14 43 -3 52 7 6
16 8 19 4 4 -3 7 6 7 20 0 15 2 27 5 27 11 0 60 -31 88 -56 7 -6 30 -14 52
-18 22 -4 46 -13 53 -18 9 -8 16 -8 24 0 17 17 54 16 40 0 -5 -7 -13 -24 -17
-38 l-7 -25 31 29 31 29 56 -13 c39 -10 58 -20 62 -32 6 -24 25 -23 48 3 20
23 59 21 111 -6 15 -8 32 -11 37 -6 9 7 100 23 142 26 6 0 24 6 40 14 78 37
73 37 99 9 22 -24 25 -36 27 -140 l3 -113 33 3 c18 1 41 -2 52 -8 17 -9 18 -6
15 68 -2 42 -6 84 -10 93 -3 9 2 34 11 55 15 34 18 36 21 17 2 -12 -1 -32 -7
-43 -17 -31 -4 -37 23 -12 13 12 29 22 35 22 17 0 15 31 -5 52 -13 15 -14 22
-4 44 9 20 9 35 0 61 -10 30 -9 39 8 62 11 14 22 34 26 45 5 11 13 16 23 12 9
-3 22 -6 29 -6z m-2927 -42 c16 -16 15 -28 -2 -28 -8 0 -16 -6 -19 -12 -8 -23
-15 -4 -10 25 6 30 13 33 31 15z m1725 -2 c15 -12 24 -46 12 -46 -18 0 -53 34
-48 46 6 17 13 17 36 0z m-18 -84 c-6 -7 -35 18 -35 31 0 5 9 2 20 -8 11 -10
18 -20 15 -23z m-1911 -50 c-17 -30 -52 -57 -61 -48 -6 6 58 76 70 76 5 0 1
-13 -9 -28z m276 -10 c0 -7 -4 -10 -10 -7 -5 3 -10 16 -10 28 0 18 2 19 10 7
5 -8 10 -21 10 -28z m-510 -130 c0 -13 -23 -32 -37 -32 -11 0 -11 5 -3 20 10
19 40 28 40 12z m-76 -77 c-4 -8 -10 -15 -15 -15 -5 0 -9 7 -9 15 0 8 7 15 15
15 9 0 12 -6 9 -15z m348 -57 c4 -39 1 -46 -31 -75 -34 -32 -61 -42 -61 -24 0
5 -3 22 -6 38 -5 24 0 37 26 67 44 50 67 48 72 -6z m-428 -33 c-16 -25 -34
-33 -34 -16 0 8 38 41 47 41 2 0 -4 -11 -13 -25z m-44 -49 c0 -20 -63 -72 -68
-56 -4 12 45 70 60 70 4 0 8 -6 8 -14z m3214 -77 c-2 -4 0 -9 6 -11 6 -2 4
-12 -5 -26 -18 -25 -40 -30 -31 -6 4 12 2 15 -9 10 -8 -3 -15 -1 -15 4 0 6 5
10 10 10 6 0 10 6 10 13 0 7 9 13 19 13 11 0 18 -3 15 -7z m-3220 -24 c-17
-26 -24 -31 -24 -16 0 10 28 41 36 41 2 0 -3 -11 -12 -25z m276 0 c0 -19 -63
-59 -69 -44 -4 13 38 59 56 59 7 0 13 -7 13 -15z m-390 -37 c-12 -25 -50 -55
-50 -39 0 12 51 73 57 68 2 -3 -1 -15 -7 -29z m15 -95 c-37 -48 -86 -116 -108
-150 -23 -35 -45 -63 -50 -63 -10 0 -10 0 76 130 82 124 140 196 145 182 2 -6
-27 -50 -63 -99z m103 61 c-13 -22 -31 -49 -41 -59 -18 -20 -115 -153 -184
-253 -40 -57 -54 -63 -29 -10 38 77 261 376 272 365 3 -2 -6 -22 -18 -43z
m3405 32 c9 -7 17 -18 17 -25 0 -6 5 -20 12 -31 10 -15 9 -25 -2 -47 -22 -42
-73 -103 -88 -103 -21 0 -82 62 -82 83 0 11 16 41 37 66 59 74 73 82 106 57z
m-231 -16 c12 -11 18 -20 12 -20 -11 1 -44 25 -44 34 0 11 10 7 32 -14z
m-4417 -155 l4 -110 -17 110 c-18 109 -18 135 -1 118 5 -5 11 -58 14 -118z
m994 2 c-9 -7 -21 -29 -28 -49 -7 -20 -18 -41 -25 -47 -7 -6 -21 -30 -31 -53
-10 -24 -56 -120 -101 -213 -62 -127 -93 -207 -123 -314 -23 -79 -41 -151 -41
-160 0 -9 -9 -41 -19 -72 -18 -53 -24 -98 -36 -284 -3 -44 -11 -109 -17 -145
-13 -75 -13 -86 -3 -157 5 -32 3 -63 -4 -84 -9 -26 -8 -38 4 -63 11 -21 14
-44 9 -74 l-6 -43 -20 33 c-12 18 -20 49 -20 72 1 22 -6 52 -14 67 -28 56 -13
458 21 572 9 29 20 93 25 142 6 65 18 116 45 185 63 161 165 393 180 410 8 9
18 31 21 48 4 17 17 43 30 57 13 14 38 46 55 72 44 63 100 125 108 117 3 -3
-1 -11 -10 -17z m3686 -137 c9 0 16 -20 21 -57 8 -64 28 -103 53 -103 14 0 14
2 1 10 -12 8 -13 13 -2 30 6 11 12 27 12 36 0 8 5 25 12 37 11 21 11 21 18 2
4 -11 3 -28 -2 -38 -5 -10 -7 -23 -4 -30 2 -7 8 -2 11 11 9 28 25 29 25 1 0
-13 18 -38 45 -61 25 -22 54 -57 64 -77 10 -20 32 -60 49 -88 17 -29 29 -53
26 -53 -13 0 -81 35 -105 55 -14 11 -45 27 -70 35 -24 8 -48 20 -52 27 -4 7
-15 13 -22 13 -8 0 -15 9 -15 19 0 11 -5 21 -11 23 -9 3 -15 21 -18 51 -1 4
-7 7 -15 7 -8 0 -26 14 -41 32 -15 18 -37 37 -49 43 -29 14 -27 38 4 45 17 4
24 12 22 25 -3 13 1 16 13 11 9 -3 23 -6 30 -6z m80 -9 c3 -5 1 -12 -5 -16 -5
-3 -10 1 -10 9 0 18 6 21 15 7z m-3854 -152 c-12 -15 -21 -35 -21 -44 0 -8 -4
-15 -10 -15 -5 0 -10 4 -10 9 0 12 22 61 40 89 12 19 16 20 18 6 2 -9 -5 -29
-17 -45z m39 10 c-11 -24 -20 -50 -20 -56 0 -7 -13 -41 -29 -75 -54 -117 -89
-203 -105 -258 -9 -30 -21 -62 -27 -70 -17 -23 -3 59 18 106 9 21 22 57 29 79
28 92 81 215 126 292 28 46 33 36 8 -18z m5867 -51 c-3 -8 -6 -5 -6 6 -1 11 2
17 5 13 3 -3 4 -12 1 -19z m-5899 -538 c7 -137 7 -219 1 -226 -5 -7 -9 -16 -8
-20 1 -5 -1 -17 -4 -26 -4 -10 -9 -26 -13 -35 -4 -15 -6 -15 -14 -3 -6 10 -9
-7 -9 -50 1 -36 -4 -85 -11 -110 -29 -115 -40 -193 -40 -292 0 -61 -4 -110
-10 -113 -6 -4 -7 -13 -1 -23 5 -9 5 -26 0 -37 -4 -11 -8 -49 -8 -85 -1 -36
-8 -87 -16 -114 -8 -27 -15 -74 -16 -105 0 -75 -13 -43 -27 69 -38 302 -51
610 -22 535 4 -11 10 -49 14 -85 7 -62 19 -100 29 -90 3 3 1 34 -3 70 -38 305
-41 338 -33 389 13 85 28 74 42 -31 17 -123 21 -138 37 -138 17 0 18 -14 -7
203 -21 186 -19 269 6 303 18 25 19 21 39 -136 19 -142 41 -192 30 -67 -5 57
-3 85 6 103 11 20 11 48 1 160 -11 111 -11 140 0 160 7 13 16 21 19 17 4 -5
12 -105 18 -223z m-191 100 c-4 -27 -17 -38 -17 -13 0 18 8 33 17 33 1 0 2 -9
0 -20z m-20 -72 c-3 -7 -5 -2 -5 12 0 14 2 19 5 13 2 -7 2 -19 0 -25z m37 5
c-4 -16 -11 -37 -15 -48 -7 -18 -8 -18 -8 5 -1 35 10 70 20 70 5 0 6 -12 3
-27z m-46 -83 c-3 -16 -1 -30 4 -30 4 0 8 -4 8 -10 0 -5 -4 -10 -10 -10 -12 0
-24 45 -16 65 10 26 18 16 14 -15z m0 -72 c-6 -18 -28 -21 -28 -4 0 9 7 16 16
16 9 0 14 -5 12 -12z m-12 -70 c-10 -38 -36 -328 -36 -412 0 -44 -3 -77 -6
-74 -9 10 -5 320 6 396 9 62 26 112 39 112 2 0 0 -10 -3 -22z m4403 -72 c-9
-8 -10 -7 -5 7 3 10 7 26 7 35 1 9 4 6 6 -7 3 -13 -1 -28 -8 -35z m-176 -65
c37 -24 69 -42 71 -40 2 2 11 27 21 54 26 74 37 95 52 95 17 0 17 -11 -2 -36
-16 -22 -20 -54 -5 -54 5 0 13 7 18 16 7 13 11 14 17 3 5 -7 4 -14 -3 -17 -15
-5 -16 -32 -1 -32 8 0 10 -16 6 -49 l-6 -48 100 -72 c185 -135 289 -232 289
-270 0 -6 7 -11 15 -11 11 0 13 -8 8 -32 -3 -18 -11 -42 -17 -53 -10 -20 -11
-19 -14 2 -3 19 -7 21 -23 13 -15 -8 -19 -7 -19 5 0 8 -4 15 -8 15 -5 0 -20
10 -33 21 -13 12 -62 47 -109 77 -47 31 -111 76 -143 101 -89 69 -139 98 -122
71 15 -25 -9 -120 -48 -191 -44 -79 -62 -75 -27 5 29 68 24 90 -7 31 -14 -27
-28 -44 -30 -38 -6 16 25 110 44 140 8 12 13 32 11 45 -2 16 -12 1 -32 -55
-17 -42 -34 -77 -38 -77 -15 0 -7 45 18 105 43 99 43 99 -17 139 -30 20 -59
36 -65 36 -22 0 -53 47 -79 118 -14 40 -23 77 -20 82 7 11 86 -28 198 -99z
m1987 -233 c0 -5 -4 -8 -10 -8 -5 0 -10 10 -10 23 0 18 2 19 10 7 5 -8 10 -18
10 -22z m410 -199 c0 -55 -28 -149 -45 -149 -7 0 -20 -16 -29 -35 -9 -19 -23
-35 -30 -35 -16 0 -26 -22 -26 -54 0 -12 -11 -33 -25 -46 -25 -23 -25 -23 -25
-2 0 11 5 24 11 28 6 3 9 15 6 25 -3 10 4 30 14 43 70 89 104 155 123 239 10
41 26 32 26 -14z m-1912 -191 c-2 -18 -7 -36 -13 -40 -6 -5 -6 -8 2 -8 6 0 19
10 27 21 14 21 15 21 14 -10 -1 -17 -5 -31 -10 -31 -4 0 -8 -9 -8 -21 0 -26
18 -15 31 19 10 26 11 26 21 7 6 -11 20 -30 30 -42 22 -24 16 -52 -7 -33 -10
9 -15 6 -20 -12 -4 -13 -17 -31 -29 -41 -16 -13 -17 -16 -3 -11 10 4 17 1 17
-5 0 -7 8 -11 18 -9 11 2 17 -3 17 -17 0 -17 -7 -20 -40 -20 -22 0 -46 -4 -54
-9 -9 -6 -17 -3 -23 8 -5 9 -14 13 -20 10 -8 -5 -9 4 -5 29 5 31 3 36 -16 39
-27 4 -26 39 3 79 10 14 28 49 40 77 12 29 24 52 26 52 2 0 3 -15 2 -32z
m1873 -51 c-13 -33 -35 -37 -25 -4 8 28 27 52 31 40 2 -6 -1 -22 -6 -36z
m-274 11 c-3 -8 -6 -5 -6 6 -1 11 2 17 5 13 3 -3 4 -12 1 -19z m-1790 -64 c-3
-3 -12 -4 -19 -1 -8 3 -5 6 6 6 11 1 17 -2 13 -5z m2065 -6 c-5 -7 -18 -37
-27 -65 -10 -29 -23 -53 -30 -53 -16 0 -40 -28 -32 -37 4 -3 13 0 22 7 18 15
34 5 18 -11 -7 -7 -23 -9 -36 -5 -25 6 -37 30 -37 75 0 33 72 101 107 101 19
0 23 -3 15 -12z m-478 -56 c4 -29 3 -41 -4 -37 -5 3 -10 25 -10 47 0 51 5 47
14 -10z m-857 -94 c-3 -8 -6 -5 -6 6 -1 11 2 17 5 13 3 -3 4 -12 1 -19z m1203
-7 c0 -11 -4 -23 -10 -26 -6 -4 -10 5 -10 19 0 14 5 26 10 26 6 0 10 -9 10
-19z m-1836 -78 c-14 -37 -31 -72 -37 -78 -12 -12 -10 -6 29 87 15 38 29 66
31 64 3 -2 -8 -35 -23 -73z m1506 51 c12 -31 13 -54 2 -54 -10 0 -32 45 -32
65 0 24 20 17 30 -11z m-1560 -70 c-18 -43 -20 -45 -14 -14 7 45 28 95 32 77
2 -8 -6 -36 -18 -63z m1930 26 c0 -22 -4 -40 -10 -40 -11 0 -14 63 -3 73 11
12 13 8 13 -33z m-90 15 c0 -8 -4 -15 -10 -15 -5 0 -7 7 -4 15 4 8 8 15 10 15
2 0 4 -7 4 -15z m216 -22 c-11 -11 -19 6 -11 24 8 17 8 17 12 0 3 -10 2 -21
-1 -24z m-1985 -78 c-33 -71 -45 -84 -30 -32 21 76 50 130 57 108 2 -6 -10
-40 -27 -76z m1991 33 c-9 -9 -12 -7 -12 12 0 19 3 21 12 12 9 -9 9 -15 0 -24z
m-182 2 c0 -11 -4 -20 -10 -20 -5 0 -10 9 -10 20 0 11 5 20 10 20 6 0 10 -9
10 -20z m-1953 -89 c23 -21 44 -37 47 -34 3 3 8 -7 12 -21 3 -15 9 -25 12 -22
2 3 32 -16 66 -42 34 -26 79 -59 101 -74 22 -14 58 -43 80 -63 77 -72 126
-108 134 -99 4 5 18 41 31 79 43 132 77 215 89 215 10 0 -46 -163 -83 -240
-14 -30 -26 -61 -26 -67 0 -22 19 -14 35 15 16 26 16 26 10 2 -17 -67 -18 -73
-6 -66 6 4 20 24 32 44 11 20 17 28 14 17 -26 -80 -24 -85 80 -161 68 -50 70
-54 80 -140 4 -40 2 -53 -9 -57 -18 -7 -93 46 -107 76 -11 22 -90 87 -108 87
-10 0 -51 -78 -51 -97 0 -6 -23 -53 -51 -104 -32 -60 -49 -83 -45 -64 4 29 50
128 102 225 28 53 33 90 9 70 -8 -7 -15 -17 -15 -22 0 -21 -113 -242 -117
-230 -3 7 22 68 56 134 34 66 61 127 61 134 0 29 -17 12 -39 -38 -34 -80 -82
-171 -98 -188 -12 -13 -13 -11 -3 15 6 17 34 77 62 134 51 103 51 104 31 120
-11 9 -33 26 -49 39 -16 13 -47 33 -69 44 -22 11 -74 56 -115 99 -78 81 -104
94 -115 58 -4 -12 -10 -17 -14 -13 -17 20 -65 143 -82 206 -16 63 -16 68 -1
68 10 0 36 -18 59 -39z m801 17 c16 -16 15 -55 -2 -61 -20 -8 -36 13 -36 45 0
30 17 37 38 16z m1316 -3 c-6 -16 -24 -21 -24 -7 0 11 11 22 21 22 5 0 6 -7 3
-15z m-92 -30 c-2 -14 -8 -28 -13 -31 -5 -3 -9 -15 -10 -27 -1 -16 -4 -13 -12
12 -10 30 -8 36 12 52 29 24 29 24 23 -6z m-292 -25 c0 -5 -2 -10 -4 -10 -3 0
-8 5 -11 10 -3 6 -1 10 4 10 6 0 11 -4 11 -10z m230 1 c0 -5 -7 -14 -15 -21
-13 -10 -15 -9 -15 9 0 12 6 21 15 21 8 0 15 -4 15 -9z m-296 -17 c4 -10 1
-14 -6 -12 -15 5 -23 28 -10 28 5 0 13 -7 16 -16z m-846 -76 c12 -12 17 -90 6
-101 -10 -10 -44 59 -44 88 0 27 18 33 38 13z m1192 -5 c0 -5 -5 -15 -10 -23
-8 -12 -10 -11 -10 8 0 12 5 22 10 22 6 0 10 -3 10 -7z m-74 -60 c-10 -10 -19
5 -10 18 6 11 8 11 12 0 2 -7 1 -15 -2 -18z m-1387 -55 c-25 -59 -46 -89 -34
-48 14 49 49 123 53 112 2 -6 -7 -34 -19 -64z m30 -27 c-12 -29 -24 -50 -26
-47 -2 2 6 27 18 55 12 29 24 50 26 47 2 -2 -6 -27 -18 -55z m1281 25 c0 -16
-18 -31 -27 -22 -8 8 5 36 17 36 5 0 10 -6 10 -14z m-1020 -47 c0 -11 -4 -17
-10 -14 -5 3 -10 13 -10 21 0 8 5 14 10 14 6 0 10 -9 10 -21z m-153 -11 c-3
-8 -6 -5 -6 6 -1 11 2 17 5 13 3 -3 4 -12 1 -19z m1623 12 c0 -5 -5 -10 -11
-10 -5 0 -7 5 -4 10 3 6 8 10 11 10 2 0 4 -4 4 -10z m-60 -20 c-20 -13 -33
-13 -25 0 3 6 14 10 23 10 15 0 15 -2 2 -10z m-90 -26 c0 -10 -33 -33 -48 -34
-10 0 -10 5 -2 20 10 18 50 29 50 14z m105 -4 c-9 -15 -45 -32 -45 -22 0 5 10
14 23 20 29 14 29 14 22 2z m-222 -31 c-4 -13 -9 -17 -16 -10 -12 12 -1 45 12
37 5 -3 7 -15 4 -27z m-181 -1 c-7 -7 -12 -8 -12 -2 0 14 12 26 19 19 2 -3 -1
-11 -7 -17z m79 -45 c-8 -15 -10 -15 -11 -2 0 17 10 32 18 25 2 -3 -1 -13 -7
-23z m99 13 c0 -3 -4 -8 -10 -11 -5 -3 -10 -1 -10 4 0 6 5 11 10 11 6 0 10 -2
10 -4z m-90 -80 c0 -26 -5 -36 -21 -41 -11 -4 -23 -5 -25 -2 -5 5 35 77 42 77
2 0 4 -15 4 -34z m-40 -111 c0 -19 -4 -35 -10 -35 -11 0 -14 53 -3 63 11 12
13 8 13 -28z m260 -80 c0 -8 -4 -15 -10 -15 -5 0 -10 7 -10 15 0 8 5 15 10 15
6 0 10 -7 10 -15z m98 3 c-3 -7 -11 -13 -18 -13 -7 0 -15 6 -17 13 -3 7 4 12
17 12 13 0 20 -5 18 -12z"/>
<path d="M5328 6623 c6 -2 18 -2 25 0 6 3 1 5 -13 5 -14 0 -19 -2 -12 -5z"/>
<path d="M7385 6390 c-3 -6 6 -15 20 -20 14 -5 23 -14 20 -20 -3 -5 -1 -10 4
-10 19 0 12 39 -8 50 -24 12 -28 13 -36 0z"/>
<path d="M5040 5850 c-13 -8 -12 -10 3 -10 9 0 17 5 17 10 0 12 -1 12 -20 0z"/>
<path d="M425 5220 c-9 -14 14 -42 27 -34 6 4 5 10 -3 15 -11 7 -11 9 -1 9 7
0 10 5 7 10 -8 13 -22 13 -30 0z"/>
<path d="M485 4616 c-18 -32 -18 -38 -4 -68 l16 -32 6 64 c4 35 6 65 4 67 -2
2 -12 -12 -22 -31z"/>
<path d="M4545 3320 c3 -5 8 -10 11 -10 2 0 4 5 4 10 0 6 -5 10 -11 10 -5 0
-7 -4 -4 -10z"/>
<path d="M4668 2690 c-12 -24 -13 -40 -5 -75 11 -50 21 -57 31 -22 11 40 7 53
-9 31 -14 -19 -14 -19 -15 2 0 12 5 35 11 53 15 42 6 50 -13 11z"/>
<path d="M5910 1449 c0 -11 9 -32 19 -45 l19 -25 7 22 c4 12 3 24 -2 28 -5 3
-12 14 -16 24 -9 24 -27 21 -27 -4z"/>
<path d="M5055 1909 c-11 -17 1 -21 15 -4 8 9 8 15 2 15 -6 0 -14 -5 -17 -11z"/>
<path d="M5447 1476 c-4 -10 -5 -21 -2 -24 9 -9 17 6 13 25 -3 17 -4 17 -11
-1z"/>
<path d="M23 7783 c-16 -6 -17 -106 -2 -135 8 -15 8 -22 0 -27 -6 -4 -10 -37
-9 -81 1 -45 4 -65 8 -50 l6 25 8 -23 c5 -16 3 -29 -8 -41 -22 -24 -20 -37 10
-77 21 -28 31 -33 53 -28 l26 5 -25 -21 c-82 -68 -97 -90 -65 -90 19 0 19 -34
0 -50 -8 -7 -15 -23 -15 -36 l0 -24 43 26 c65 40 70 50 46 96 -28 55 -12 69
34 28 35 -30 37 -31 66 -16 16 9 32 20 35 25 6 9 -37 100 -53 111 -4 3 -29 39
-56 80 -73 114 -81 129 -51 93 29 -35 47 -41 64 -20 12 14 11 16 -43 112 -32
57 -40 72 -51 101 -5 12 -15 19 -21 17z m57 -353 c6 -11 8 -20 6 -20 -3 0 -10
9 -16 20 -6 11 -8 20 -6 20 3 0 10 -9 16 -20z m70 -48 c0 -13 -12 -22 -22 -16
-10 6 -1 24 13 24 5 0 9 -4 9 -8z m18 -70 c6 -18 -15 -14 -22 4 -4 10 -1 14 6
12 6 -2 14 -10 16 -16z"/>
<path d="M10 7336 c0 -14 5 -26 10 -26 6 0 10 9 10 19 0 11 -4 23 -10 26 -6 4
-10 -5 -10 -19z"/>
<path d="M3641 6389 c-16 -13 -39 -19 -77 -19 -49 0 -56 -3 -94 -42 -73 -73
-86 -108 -39 -108 10 0 19 -5 19 -11 0 -16 66 -4 111 18 20 11 66 20 114 23
71 4 81 7 91 29 7 13 17 27 23 31 18 11 2 37 -37 61 -59 35 -85 39 -111 18z"/>
<path d="M2910 5965 c-9 -11 -10 -27 -4 -58 l9 -42 23 47 c13 26 21 52 17 58
-9 15 -31 12 -45 -5z"/>
<path d="M7953 5940 c-10 -15 -9 -17 8 -13 20 5 25 18 11 27 -4 2 -13 -4 -19
-14z"/>
<path d="M4246 5841 c-4 -7 -6 -13 -5 -14 2 -2 13 -9 24 -17 18 -13 19 -13 9
0 -6 8 -13 22 -16 30 -3 11 -6 11 -12 1z"/>
<path d="M4290 5669 c0 -5 5 -7 10 -4 6 3 10 8 10 11 0 2 -4 4 -10 4 -5 0 -10
-5 -10 -11z"/>
<path d="M7961 5664 c0 -11 3 -14 6 -6 3 7 2 16 -1 19 -3 4 -6 -2 -5 -13z"/>
<path d="M3205 5510 c-3 -5 0 -17 8 -25 13 -12 16 -12 20 0 7 17 -18 41 -28
25z"/>
<path d="M4885 5420 c-3 -5 -2 -10 4 -10 5 0 13 5 16 10 3 6 2 10 -4 10 -5 0
-13 -4 -16 -10z"/>
<path d="M4190 5240 c0 -48 14 -67 26 -35 8 20 -5 85 -16 85 -6 0 -10 -22 -10
-50z"/>
<path d="M4007 5203 c-13 -12 -7 -33 8 -33 8 0 15 9 15 20 0 20 -11 26 -23 13z"/>
<path d="M4085 5190 c-3 -5 -1 -10 4 -10 6 0 11 5 11 10 0 6 -2 10 -4 10 -3 0
-8 -4 -11 -10z"/>
<path d="M4460 5090 c0 -5 4 -10 9 -10 6 0 13 5 16 10 3 6 -1 10 -9 10 -9 0
-16 -4 -16 -10z"/>
<path d="M4108 5002 c-32 -19 -35 -30 -13 -38 15 -6 55 29 55 48 0 11 -11 9
-42 -10z"/>
<path d="M6851 4734 c-2 -108 11 -286 20 -277 4 4 2 85 -5 178 -9 116 -14 147
-15 99z"/>
<path d="M2103 4501 c-26 -22 -32 -35 -18 -39 6 -2 16 -8 23 -14 16 -14 19
-11 27 35 8 41 1 45 -32 18z"/>
<path d="M2125 4420 c-3 -5 -2 -10 4 -10 5 0 13 5 16 10 3 6 2 10 -4 10 -5 0
-13 -4 -16 -10z"/>
<path d="M6866 4368 c-7 -15 8 -126 19 -136 7 -7 5 42 -4 103 -5 34 -10 45
-15 33z"/>
<path d="M2255 4331 c-3 -5 -1 -12 4 -15 5 -3 11 1 15 9 6 16 -9 21 -19 6z"/>
<path d="M7542 4315 c-1 -11 -5 -38 -8 -60 -4 -32 -3 -36 6 -22 6 9 9 36 7 60
-2 23 -4 33 -5 22z"/>
<path d="M2217 4312 c-7 -10 4 -62 13 -62 11 0 20 39 13 56 -6 15 -19 18 -26
6z"/>
<path d="M1282 4250 c0 -14 2 -19 5 -12 2 6 2 18 0 25 -3 6 -5 1 -5 -13z"/>
<path d="M2303 4190 c0 -36 2 -50 4 -32 2 17 2 47 0 65 -2 17 -4 3 -4 -33z"/>
<path d="M2242 4095 c0 -16 2 -22 5 -12 2 9 2 23 0 30 -3 6 -5 -1 -5 -18z"/>
<path d="M6837 3913 c-10 -9 4 -226 14 -238 7 -7 1 233 -6 243 -1 1 -5 -1 -8
-5z"/>
<path d="M7581 3749 c2 -123 2 -123 10 -49 5 41 6 95 4 119 -9 84 -15 54 -14
-70z"/>
<path d="M7952 3785 c0 -16 2 -22 5 -12 2 9 2 23 0 30 -3 6 -5 -1 -5 -18z"/>
<path d="M7577 3530 c-3 -52 -4 -96 -3 -98 2 -2 10 28 16 66 9 47 10 78 3 98
-8 24 -11 14 -16 -66z"/>
<path d="M7436 3578 c-3 -13 -5 -34 -5 -48 1 -15 5 -7 10 19 9 47 6 68 -5 29z"/>
<path d="M7421 3484 c0 -11 3 -14 6 -6 3 7 2 16 -1 19 -3 4 -6 -2 -5 -13z"/>
<path d="M7336 2994 c-3 -26 -6 -63 -5 -83 l1 -36 8 40 c14 74 18 125 10 125
-4 0 -10 -21 -14 -46z"/>
<path d="M6961 2944 c0 -11 3 -14 6 -6 3 7 2 16 -1 19 -3 4 -6 -2 -5 -13z"/>
<path d="M6881 2875 c1 -46 1 -48 11 -22 7 20 7 35 0 50 -9 18 -11 14 -11 -28z"/>
<path d="M7651 2904 c0 -11 3 -14 6 -6 3 7 2 16 -1 19 -3 4 -6 -2 -5 -13z"/>
<path d="M7640 2812 c0 -11 -3 -41 -6 -68 -4 -34 -2 -44 4 -34 14 21 22 109
11 116 -5 3 -9 -3 -9 -14z"/>
<path d="M6971 2724 c1 -32 5 -70 10 -84 5 -16 6 5 2 55 -7 96 -13 112 -12 29z"/>
<path d="M6925 2746 c-4 -16 -3 -57 3 -95 7 -36 14 -122 16 -190 5 -131 15
-174 18 -75 2 94 -3 194 -16 295 -10 77 -14 89 -21 65z"/>
<path d="M7541 2694 c0 -11 3 -14 6 -6 3 7 2 16 -1 19 -3 4 -6 -2 -5 -13z"/>
<path d="M7626 2675 c-3 -9 -6 -26 -5 -38 1 -14 4 -9 9 13 9 37 7 52 -4 25z"/>
<path d="M6862 2630 c0 -14 2 -19 5 -12 2 6 2 18 0 25 -3 6 -5 1 -5 -13z"/>
<path d="M6991 2504 c0 -11 3 -14 6 -6 3 7 2 16 -1 19 -3 4 -6 -2 -5 -13z"/>
<path d="M6980 2359 c0 -11 5 -17 10 -14 6 3 10 13 10 21 0 8 -4 14 -10 14 -5
0 -10 -9 -10 -21z"/>
<path d="M6953 2270 c0 -30 2 -43 4 -27 2 15 2 39 0 55 -2 15 -4 2 -4 -28z"/>
<path d="M7939 2296 c-6 -6 -248 -46 -276 -46 -28 0 -30 -16 -3 -30 11 -6 20
-7 20 -3 0 5 11 10 25 11 14 1 25 -3 25 -8 0 -6 -8 -10 -17 -11 -14 0 -13 -3
5 -11 12 -6 22 -19 22 -29 0 -10 10 -25 22 -33 12 -9 17 -16 10 -16 -6 0 -12
-7 -12 -15 0 -8 7 -15 15 -15 10 0 12 -6 8 -17 -6 -16 -4 -16 9 -5 22 18 50 0
68 -42 10 -24 14 -27 17 -13 5 21 17 22 32 3 9 -11 9 -15 -1 -20 -7 -3 -4 -5
7 -3 11 1 26 -2 33 -7 29 -18 37 14 40 164 l4 150 -24 0 c-14 0 -27 -2 -29 -4z
m-111 -181 c0 -13 -4 -22 -9 -19 -5 3 -9 14 -9 25 0 10 4 19 9 19 5 0 9 -11 9
-25z"/>
<path d="M7263 1845 c0 -22 2 -30 4 -17 2 12 2 30 0 40 -3 9 -5 -1 -4 -23z"/>
<path d="M7117 1626 c-4 -10 -5 -21 -2 -24 9 -9 17 6 13 25 -3 17 -4 17 -11
-1z"/>
<path d="M210 1040 c0 -5 5 -10 10 -10 6 0 10 5 10 10 0 6 -4 10 -10 10 -5 0
-10 -4 -10 -10z"/>
<path d="M151 1004 c0 -11 3 -14 6 -6 3 7 2 16 -1 19 -3 4 -6 -2 -5 -13z"/>
<path d="M217 1003 c-4 -3 -7 -11 -7 -17 0 -6 4 -6 11 1 6 6 18 9 25 6 8 -3
14 0 14 6 0 12 -32 15 -43 4z"/>
<path d="M710 273 c0 -24 -5 -33 -17 -34 -15 0 -15 -2 2 -9 15 -6 6 -9 -32 -9
-32 -1 -53 4 -56 12 -4 9 -8 8 -16 -3 -6 -8 -18 -16 -28 -16 -10 -1 -25 -3
-33 -5 -10 -3 -14 2 -12 14 2 9 -3 17 -12 17 -9 0 -12 -7 -9 -20 5 -17 0 -20
-26 -20 -21 0 -31 5 -31 15 0 8 -4 15 -9 15 -5 0 -14 -7 -21 -15 -13 -16 -31
-20 -29 -7 3 18 -2 24 -13 15 -25 -20 -66 -23 -94 -8 -32 17 -121 18 -141 2
-9 -7 -13 -4 -13 8 0 15 -7 16 -52 11 -29 -3 -54 -6 -55 -6 -2 0 -3 -27 -3
-59 0 -39 5 -65 15 -74 11 -12 12 -16 2 -20 -6 -2 8 -3 33 -2 25 2 60 3 78 4
21 1 32 6 32 16 0 9 9 15 25 15 14 0 25 -4 25 -10 0 -15 16 -12 33 5 11 10 33
14 76 12 34 -1 61 1 61 4 0 3 11 4 25 1 13 -2 33 -1 42 3 10 3 18 5 18 4 0 -1
10 3 23 10 16 8 27 9 42 1 14 -8 20 -8 20 0 0 7 6 8 19 1 10 -6 21 -8 24 -4 4
3 34 7 68 10 50 3 64 1 75 -14 12 -16 13 -12 14 33 0 34 -5 56 -15 64 -8 7
-15 20 -15 29 0 9 -5 23 -10 31 -7 11 -10 7 -10 -17z"/>
<path d="M7230 281 c0 -6 5 -13 10 -16 6 -3 10 1 10 9 0 9 -4 16 -10 16 -5 0
-10 -4 -10 -9z"/>
<path d="M400 250 c0 -5 5 -10 11 -10 5 0 7 5 4 10 -3 6 -8 10 -11 10 -2 0 -4
-4 -4 -10z"/>
<path d="M7297 233 c-15 -14 -5 -31 23 -43 17 -7 30 -18 30 -26 0 -16 39 -39
58 -35 8 1 16 -7 19 -18 4 -17 9 -19 24 -10 10 5 19 15 19 22 -1 21 -37 57
-59 57 -11 0 -23 5 -26 11 -4 6 -14 8 -22 5 -8 -3 -24 5 -37 19 -13 14 -26 22
-29 18z"/>
<path d="M7176 211 c-4 -7 -5 -15 -2 -18 9 -9 19 4 14 18 -4 11 -6 11 -12 0z"/>
<path d="M7212 193 c-17 -33 -2 -47 24 -22 13 12 24 26 24 31 0 15 -39 8 -48
-9z"/>
<path d="M7473 153 c9 -9 19 -14 23 -11 10 10 -6 28 -24 28 -15 0 -15 -1 1
-17z"/>
<path d="M190 90 c0 -5 5 -10 10 -10 6 0 10 5 10 10 0 6 -4 10 -10 10 -5 0
-10 -4 -10 -10z"/>
<path d="M7540 80 c-9 -18 -8 -20 15 -20 32 0 32 -9 -2 -37 l-28 -22 83 -1
c68 0 82 3 82 16 0 9 -9 18 -20 21 -11 3 -20 12 -20 19 0 8 -8 14 -18 14 -10
0 -27 7 -38 15 -26 20 -41 19 -54 -5z"/>
<path d="M7335 70 c-3 -5 -2 -10 4 -10 5 0 13 5 16 10 3 6 2 10 -4 10 -5 0
-13 -4 -16 -10z"/>
<path d="M7336 21 c-4 -7 -5 -15 -2 -18 9 -9 19 4 14 18 -4 11 -6 11 -12 0z"/>
<path d="M7370 10 c0 -5 5 -10 11 -10 5 0 7 5 4 10 -3 6 -8 10 -11 10 -2 0 -4
-4 -4 -10z"/>
</g>
</svg>
