<?xml version="1.0" standalone="no"?>
<!DOCTYPE svg PUBLIC "-//W3C//DTD SVG 20010904//EN"
 "http://www.w3.org/TR/2001/REC-SVG-20010904/DTD/svg10.dtd">
<svg version="1.0" xmlns="http://www.w3.org/2000/svg"
 width="377.000000pt" height="377.000000pt" viewBox="0 0 377.000000 377.000000"
 preserveAspectRatio="xMidYMid meet">

<g transform="translate(0.000000,377.000000) scale(0.100000,-0.100000)"
fill="#000000" stroke="none">
<path d="M1745 3483 c-16 -2 -37 -7 -45 -10 -8 -3 -18 -5 -23 -5 -4 1 -22 -4
-40 -11 -17 -8 -49 -17 -70 -21 -69 -13 -306 -151 -307 -179 0 -5 -14 -20 -31
-35 -34 -28 -79 -113 -79 -148 0 -12 -14 -47 -30 -78 -17 -31 -32 -74 -33 -94
-1 -20 -5 -39 -8 -42 -3 -3 -9 -23 -13 -45 -6 -37 -5 -39 9 -21 11 14 15 16
15 5 0 -11 2 -12 9 0 7 11 10 11 17 0 4 -7 3 -14 -4 -17 -15 -5 -15 -32 -1
-52 8 -12 9 -10 4 8 -5 18 -2 25 14 29 12 3 24 16 27 29 6 24 24 34 24 13 0
-28 19 8 45 86 45 135 109 195 211 195 16 0 39 -7 50 -15 10 -8 36 -15 57 -15
21 0 51 -7 66 -14 15 -8 37 -13 48 -10 12 3 24 1 27 -5 4 -6 18 -11 31 -11 13
0 26 -4 29 -9 3 -4 26 -14 51 -21 24 -7 43 -16 40 -20 -7 -11 36 -37 66 -42
13 -1 28 -13 34 -25 5 -12 17 -24 27 -26 10 -3 18 -12 18 -21 0 -9 5 -16 11
-16 6 0 8 -7 5 -16 -4 -10 1 -25 10 -35 16 -18 11 -64 -7 -54 -5 4 -4 -6 1
-21 6 -15 9 -33 6 -40 -3 -8 -1 -16 5 -19 5 -4 9 -49 8 -107 -2 -91 -4 -101
-23 -108 -26 -10 -76 -56 -76 -70 0 -19 -29 -10 -41 12 -12 22 -13 21 -26 -17
-20 -55 -32 -332 -18 -430 2 -16 7 -62 11 -102 7 -72 7 -72 -20 -79 -14 -3
-26 -12 -26 -20 0 -7 -6 -11 -14 -8 -19 7 -29 -25 -12 -42 8 -8 22 -14 32 -14
15 0 14 -3 -5 -24 -21 -22 -22 -54 -1 -41 5 3 11 1 15 -5 4 -6 10 -8 15 -5 4
3 10 -5 13 -17 6 -21 7 -21 26 -4 18 17 20 17 30 -1 10 -17 12 -17 25 0 18 23
36 22 36 -4 0 -34 -19 -61 -40 -54 -10 3 -21 1 -25 -5 -3 -5 -17 -10 -30 -10
-13 0 -25 -5 -27 -12 -3 -7 -23 -12 -46 -12 -23 -1 -42 -4 -42 -8 0 -5 -8 -8
-17 -8 -14 0 -13 -3 6 -16 16 -11 26 -13 33 -6 13 13 50 0 79 -27 12 -11 27
-17 35 -14 19 7 18 -16 -3 -39 -14 -16 -14 -18 -1 -18 9 0 22 -7 29 -16 11
-13 10 -17 -4 -25 -9 -5 -14 -16 -11 -23 3 -8 -4 -19 -15 -26 -28 -14 -27 -33
0 -25 16 5 20 3 16 -6 -2 -8 -9 -13 -14 -12 -6 1 -10 -33 -9 -87 1 -90 6 -105
25 -72 9 14 10 14 11 1 0 -8 -5 -20 -11 -26 -7 -7 -9 -19 -5 -28 5 -14 9 -15
22 -5 10 9 18 10 25 3 12 -12 -75 -113 -97 -113 -8 0 -14 -4 -14 -10 0 -13 1
-13 38 5 17 9 39 18 49 20 48 11 99 35 114 54 12 14 19 17 22 9 3 -10 9 -11
26 0 25 14 51 16 51 2 0 -16 -38 -32 -43 -17 -4 9 -6 9 -6 0 -1 -6 4 -15 9
-18 16 -10 12 -23 -11 -30 -11 -4 -18 -9 -16 -12 24 -23 346 238 418 339 l20
27 -36 15 c-42 18 -41 10 -15 211 26 200 29 208 69 216 41 8 74 39 94 87 47
114 58 147 72 209 9 37 25 99 37 137 32 106 10 214 -47 236 -22 8 -23 12 -14
38 13 37 -22 365 -51 476 -11 44 -18 81 -15 84 2 3 -2 14 -10 26 -8 11 -15 32
-15 45 0 43 -40 109 -93 155 -29 25 -68 59 -87 76 -54 49 -149 115 -217 150
-116 61 -292 91 -428 73z m-578 -565 c-3 -8 -6 -5 -6 6 -1 11 2 17 5 13 3 -3
4 -12 1 -19z m-51 -74 c-4 -9 -9 -15 -11 -12 -3 3 -3 13 1 22 4 9 9 15 11 12
3 -3 3 -13 -1 -22z m27 -39 c-3 -9 -8 -14 -10 -11 -3 3 -2 9 2 15 9 16 15 13
8 -4z m910 -545 c-6 -22 -18 -26 -28 -10 -8 13 3 30 20 30 8 0 11 -7 8 -20z
m133 -233 c8 -4 14 -14 14 -22 0 -7 6 -15 13 -18 7 -3 3 -8 -11 -14 l-24 -9
26 -12 c14 -6 26 -17 26 -24 0 -7 7 -26 15 -41 8 -15 17 -45 21 -65 4 -20 10
-41 14 -47 4 -5 10 -37 14 -70 7 -64 -10 -120 -40 -132 -8 -3 -14 -14 -14 -24
0 -10 -9 -24 -20 -31 -11 -7 -20 -21 -20 -30 0 -11 -8 -18 -20 -18 -11 0 -20
-5 -20 -11 0 -8 -4 -8 -14 0 -11 9 -15 9 -19 -1 -3 -7 -3 5 0 27 3 22 10 48
15 58 5 10 4 33 -2 58 -6 23 -9 48 -6 56 4 11 2 13 -9 9 -9 -3 -15 0 -15 9 0
8 5 15 10 15 15 0 1 69 -20 100 -38 56 -54 155 -31 198 9 17 21 22 52 22 25 0
38 4 34 10 -4 6 -4 19 0 28 6 14 8 15 13 2 3 -8 11 -19 18 -23z m-56 14 c0 -6
-4 -13 -10 -16 -5 -3 -10 1 -10 9 0 9 5 16 10 16 6 0 10 -4 10 -9z"/>
<path d="M2172 1708 c-5 -8 -6 -22 -2 -34 15 -38 27 -35 26 6 -1 42 -7 49 -24
28z"/>
<path d="M1070 2751 c0 -5 5 -13 10 -16 6 -3 10 -2 10 4 0 5 -4 13 -10 16 -5
3 -10 2 -10 -4z"/>
<path d="M1955 2610 c-3 -5 -1 -10 4 -10 6 0 11 5 11 10 0 6 -2 10 -4 10 -3 0
-8 -4 -11 -10z"/>
<path d="M1045 2561 c3 -11 -1 -25 -9 -34 -9 -8 -20 -34 -25 -57 -9 -38 -7
-44 20 -73 l28 -32 2 45 c1 25 1 56 0 70 -1 18 1 21 7 11 6 -7 12 -9 15 -4 4
6 0 19 -8 29 -8 10 -15 29 -15 42 0 12 -5 22 -11 22 -6 0 -8 -8 -4 -19z"/>
<path d="M1076 2438 c-10 -38 -7 -47 14 -45 20 1 29 17 10 17 -6 0 -8 11 -4
25 3 14 2 25 -4 25 -5 0 -12 -10 -16 -22z"/>
<path d="M1462 2426 c-81 -30 -60 -52 46 -48 73 3 82 6 82 22 0 38 -61 50
-128 26z"/>
<path d="M1070 2371 c0 -5 6 -12 13 -15 9 -4 9 -7 0 -12 -7 -3 -9 -15 -4 -32
4 -15 6 -33 3 -41 -3 -8 0 -11 7 -7 6 4 11 32 11 62 0 41 -4 54 -15 54 -8 0
-15 -4 -15 -9z"/>
<path d="M1549 2336 c-2 -2 -31 -6 -64 -10 -33 -3 -71 -9 -85 -12 -38 -11 -91
-45 -85 -54 3 -5 -3 -13 -12 -19 -16 -9 -14 -10 9 -11 14 0 28 6 31 13 3 9 21
8 83 -6 43 -10 96 -21 118 -24 27 -4 34 -8 25 -14 -8 -5 13 -7 51 -4 36 2 68
5 71 5 17 1 18 53 2 80 -21 36 -123 75 -144 56z m41 -57 c0 -11 -7 -19 -16
-19 -11 0 -14 5 -10 16 3 9 6 20 6 25 0 6 5 7 10 4 6 -3 10 -15 10 -26z m-147
7 c3 -8 3 -17 0 -20 -9 -9 -44 14 -38 25 9 14 32 11 38 -5z m57 -14 c0 -5 -7
-9 -15 -9 -8 0 -12 4 -9 9 3 4 9 8 15 8 5 0 9 -4 9 -8z m175 -52 c-3 -5 -10
-10 -16 -10 -5 0 -9 5 -9 10 0 6 7 10 16 10 8 0 12 -4 9 -10z"/>
<path d="M981 2284 c0 -11 3 -14 6 -6 3 7 2 16 -1 19 -3 4 -6 -2 -5 -13z"/>
<path d="M1021 2126 c-20 -24 -25 -90 -8 -104 12 -11 15 -3 21 49 8 67 5 77
-13 55z"/>
<path d="M1020 1971 c0 -6 5 -13 10 -16 6 -3 10 1 10 9 0 9 -4 16 -10 16 -5 0
-10 -4 -10 -9z"/>
<path d="M1407 1622 c-11 -16 5 -51 29 -67 21 -14 24 -14 24 0 0 21 9 19 54
-15 21 -16 62 -34 92 -41 29 -7 52 -15 49 -18 -2 -4 5 -8 16 -8 38 -3 13 22
-30 30 -48 10 -88 46 -97 90 -4 15 -12 27 -18 27 -6 1 -34 3 -62 6 -29 3 -54
1 -57 -4z"/>
<path d="M2563 1117 c7 -25 -20 -74 -99 -182 -29 -39 -53 -74 -55 -80 -2 -5
-15 -21 -29 -35 -14 -14 -45 -55 -69 -90 -25 -36 -48 -67 -51 -70 -3 -3 -17
-21 -30 -40 -13 -19 -31 -40 -39 -46 -9 -7 -11 -16 -6 -25 5 -8 5 -11 0 -7 -9
9 -20 -2 -71 -72 -58 -79 -115 -180 -108 -191 3 -5 0 -8 -7 -7 -7 2 -15 -6
-17 -17 -2 -11 -12 -26 -21 -33 -9 -7 -10 -11 -4 -7 9 4 11 1 7 -9 -3 -9 -11
-13 -17 -9 -6 4 -8 -2 -5 -15 4 -13 1 -22 -5 -22 -21 0 -48 -79 -36 -104 10
-20 10 -20 -5 -2 -16 20 -16 20 -34 0 -10 -11 -16 -26 -14 -33 3 -9 0 -11 -8
-6 -9 5 -11 4 -6 -3 5 -8 270 -11 971 -12 l965 0 0 144 0 143 -38 26 c-55 36
-178 97 -239 118 -29 10 -70 31 -90 48 -56 44 -140 91 -423 238 -63 33 -130
69 -148 80 -40 25 -140 160 -187 253 -30 60 -57 90 -80 90 -4 0 -5 -10 -2 -23z"/>
<path d="M1240 849 c-30 -55 12 -411 62 -530 l11 -25 39 42 c46 50 48 75 14
194 -13 47 -35 140 -48 207 -21 110 -25 122 -46 126 -15 3 -26 -2 -32 -14z"/>
<path d="M1035 690 c3 -5 8 -10 11 -10 2 0 4 5 4 10 0 6 -5 10 -11 10 -5 0 -7
-4 -4 -10z"/>
<path d="M1087 693 c-4 -3 -7 -13 -7 -20 0 -12 3 -12 15 1 8 8 15 17 15 20 0
8 -15 7 -23 -1z"/>
<path d="M978 673 c7 -3 16 -2 19 1 4 3 -2 6 -13 5 -11 0 -14 -3 -6 -6z"/>
<path d="M1036 644 c-5 -14 -4 -15 9 -4 17 14 19 20 6 20 -5 0 -12 -7 -15 -16z"/>
<path d="M909 643 c-10 -2 -19 -13 -22 -24 -4 -14 -14 -19 -41 -19 -20 0 -36
5 -36 10 0 6 -4 10 -10 10 -5 0 -7 -7 -3 -16 5 -14 3 -15 -16 -4 -13 6 -25 9
-29 6 -3 -3 -1 -6 5 -6 6 0 13 -7 17 -15 3 -8 1 -15 -4 -15 -5 0 -15 7 -24 15
-19 19 -30 19 -23 0 5 -11 1 -12 -19 -5 -37 14 -40 12 -15 -9 21 -18 21 -20 4
-30 -10 -6 -12 -11 -5 -11 6 0 22 10 34 22 19 19 22 19 33 5 11 -15 14 -15 34
-1 12 9 27 13 34 11 7 -3 5 -6 -5 -6 -10 -1 -18 -8 -18 -16 0 -8 -4 -15 -10
-15 -10 0 -32 -16 -79 -59 l-26 -23 38 21 c21 12 44 21 50 21 7 0 34 20 61 45
48 43 73 53 45 18 -11 -14 -6 -13 21 4 19 12 37 28 39 35 3 11 1 11 -11 0 -30
-25 -31 8 -1 34 27 23 22 28 -18 17z"/>
<path d="M640 570 c20 -13 33 -13 25 0 -3 6 -14 10 -23 10 -15 0 -15 -2 -2
-10z"/>
<path d="M587 526 c-16 -14 -34 -27 -40 -29 -7 -2 -8 -8 -4 -13 4 -4 17 -2 28
5 12 7 24 10 27 6 4 -3 0 -10 -7 -15 -12 -7 -11 -11 3 -25 9 -10 20 -14 24
-11 3 4 0 11 -7 15 -11 7 -9 13 6 28 11 11 25 17 31 15 7 -2 12 1 12 7 0 6 -7
11 -15 11 -8 0 -15 7 -15 15 0 21 -11 19 -43 -9z"/>
<path d="M720 520 c0 -5 -6 -10 -14 -10 -8 0 -18 -4 -21 -10 -10 -17 11 -11
36 10 13 10 18 19 12 20 -7 0 -13 -4 -13 -10z"/>
<path d="M1044 488 c0 -10 1 -18 3 -18 1 0 7 8 12 18 7 13 6 19 -2 19 -7 0
-13 -9 -13 -19z"/>
<path d="M255 458 c-89 -81 -154 -188 -206 -341 -17 -51 -34 -98 -36 -104 -4
-10 10 -13 51 -13 42 0 56 4 56 14 0 8 4 16 8 18 5 1 12 17 16 33 5 22 4 26
-4 15 -8 -13 -10 -13 -10 2 0 9 5 20 10 23 6 4 10 12 9 18 -3 26 2 37 16 37
13 0 14 4 5 21 -10 17 -8 21 10 26 16 4 18 8 9 14 -9 5 -10 11 -2 21 6 7 13
26 17 41 4 16 11 25 17 21 6 -3 9 0 8 7 -3 17 44 111 78 157 36 48 4 42 -52
-10z"/>
<path d="M430 490 c-8 -5 -10 -10 -5 -10 6 0 17 5 25 10 8 5 11 10 5 10 -5 0
-17 -5 -25 -10z"/>
<path d="M795 490 c-3 -5 1 -10 9 -10 8 0 18 5 21 10 3 6 -1 10 -9 10 -8 0
-18 -4 -21 -10z"/>
<path d="M640 470 c0 -5 7 -7 15 -4 8 4 15 8 15 10 0 2 -7 4 -15 4 -8 0 -15
-4 -15 -10z"/>
<path d="M750 465 c-14 -16 -10 -18 14 -9 9 3 16 10 16 15 0 14 -16 11 -30 -6z"/>
<path d="M834 456 c1 -8 5 -18 8 -22 4 -3 5 1 4 10 -1 8 -5 18 -8 22 -4 3 -5
-1 -4 -10z"/>
<path d="M400 439 c-28 -14 -31 -18 -14 -19 28 0 79 26 62 32 -7 2 -29 -4 -48
-13z"/>
<path d="M500 444 l-25 -14 27 0 c15 0 29 4 33 9 9 16 -9 18 -35 5z"/>
<path d="M1019 439 c-5 -10 -6 -26 -3 -36 6 -16 5 -16 -10 2 -16 18 -17 18
-12 2 3 -11 8 -31 11 -45 5 -23 4 -24 -4 -7 -9 19 -10 19 -10 1 -1 -11 -4 -16
-8 -13 -9 10 -32 -25 -26 -40 3 -7 10 -10 17 -6 6 3 7 2 3 -3 -5 -5 -13 -10
-18 -10 -5 -1 -15 -2 -21 -3 -8 -1 -5 -7 6 -16 15 -11 16 -15 5 -15 -21 0 -51
-37 -36 -44 9 -3 8 -8 -3 -15 -8 -6 -16 -20 -16 -33 -1 -12 -6 -24 -12 -26 -5
-1 -8 -13 -5 -25 4 -18 3 -19 -7 -7 -10 12 -11 11 -7 -10 3 -14 1 -34 -4 -45
-9 -19 -9 -18 -5 3 2 12 0 22 -5 22 -10 0 -12 -31 -3 -54 4 -12 20 -16 54 -16
47 0 47 1 62 43 16 44 43 128 43 137 1 3 5 16 9 29 6 19 4 28 -10 38 -10 7
-13 13 -7 13 7 0 12 8 11 18 0 9 9 44 21 76 12 33 19 61 16 64 -2 3 0 12 5 22
7 12 5 17 -6 17 -8 0 -19 -8 -25 -18z"/>
<path d="M707 439 c-10 -6 -25 -8 -33 -5 -8 3 -12 2 -9 -3 3 -5 1 -12 -5 -16
-5 -3 -10 -13 -10 -21 0 -8 5 -12 10 -9 6 3 10 1 10 -5 0 -6 5 -8 10 -5 6 3
10 15 10 25 0 10 9 22 20 25 11 3 20 11 20 16 0 11 -1 11 -23 -2z"/>
<path d="M575 430 c-3 -5 -12 -7 -19 -4 -8 3 -17 1 -20 -5 -4 -6 11 -9 38 -8
34 2 42 5 34 14 -12 15 -25 17 -33 3z"/>
<path d="M444 415 c-15 -11 -16 -14 -4 -15 21 0 44 16 33 23 -6 4 -19 0 -29
-8z"/>
<path d="M370 401 c0 -5 -8 -12 -17 -14 -11 -3 -8 -5 9 -6 20 -1 26 3 22 14
-7 17 -14 20 -14 6z"/>
<path d="M493 395 c-10 -11 -10 -15 0 -18 7 -3 5 -6 -5 -6 -22 -1 -57 -52 -55
-79 2 -25 12 -29 21 -7 3 8 13 15 23 15 15 0 15 2 4 9 -12 8 -12 12 -2 25 8 9
10 16 5 17 -5 0 5 7 21 14 17 8 25 14 18 15 -7 0 -10 7 -7 15 8 19 -7 19 -23
0z m-33 -85 c0 -5 -5 -10 -11 -10 -5 0 -7 5 -4 10 3 6 8 10 11 10 2 0 4 -4 4
-10z"/>
<path d="M781 394 c0 -11 3 -14 6 -6 3 7 2 16 -1 19 -3 4 -6 -2 -5 -13z"/>
<path d="M411 374 c-7 -8 -10 -18 -6 -22 4 -4 10 -1 12 6 3 6 11 12 19 12 8 0
14 5 14 10 0 15 -23 11 -39 -6z"/>
<path d="M543 337 c-3 -5 4 -6 17 -2 19 6 22 4 17 -9 -4 -10 -3 -15 3 -11 6 3
10 -1 10 -10 0 -9 -5 -13 -10 -10 -6 3 -13 -1 -16 -9 -3 -9 -10 -13 -15 -10
-5 3 -19 2 -31 -2 -21 -6 -21 -6 3 -20 22 -12 22 -13 4 -14 -19 -1 -19 -1 -1
-11 14 -9 20 -8 27 2 5 8 9 10 9 4 0 -5 5 -2 11 8 5 9 7 22 3 29 -4 6 -3 8 3
5 6 -4 16 7 23 23 7 16 17 28 22 27 6 -1 12 3 14 8 5 13 -85 15 -93 2z m17
-77 c18 -12 2 -12 -25 0 -13 6 -15 9 -5 9 8 0 22 -4 30 -9z"/>
<path d="M370 330 c-12 -8 -11 -10 8 -10 12 0 22 5 22 10 0 13 -11 13 -30 0z"/>
<path d="M512 321 c-11 -6 -10 -10 4 -15 9 -3 19 -4 22 -1 3 3 0 5 -7 5 -7 0
-9 5 -6 10 7 12 4 12 -13 1z"/>
<path d="M768 303 c6 -2 18 -2 25 0 6 3 1 5 -13 5 -14 0 -19 -2 -12 -5z"/>
<path d="M328 293 c6 -2 18 -2 25 0 6 3 1 5 -13 5 -14 0 -19 -2 -12 -5z"/>
<path d="M395 280 c17 -7 17 -9 3 -9 -23 -1 -23 -17 0 -23 13 -4 18 1 20 18 1
19 -3 24 -21 23 -21 0 -21 -1 -2 -9z"/>
<path d="M781 274 c0 -11 3 -14 6 -6 3 7 2 16 -1 19 -3 4 -6 -2 -5 -13z"/>
<path d="M728 273 c6 -2 18 -2 25 0 6 3 1 5 -13 5 -14 0 -19 -2 -12 -5z"/>
<path d="M355 209 c0 -26 4 -45 8 -42 4 3 6 18 3 33 -3 23 0 30 15 32 17 3 17
4 -4 14 -22 10 -23 9 -22 -37z"/>
<path d="M330 166 c0 -13 -6 -27 -12 -29 -8 -3 -6 -6 5 -6 12 -1 17 7 17 29 0
17 -2 30 -5 30 -3 0 -5 -11 -5 -24z"/>
<path d="M500 186 c0 -2 11 -6 25 -8 13 -3 22 -1 19 3 -5 9 -44 13 -44 5z"/>
<path d="M680 173 c-13 -15 -12 -16 2 -10 12 4 19 0 23 -14 4 -11 9 -18 12
-16 2 3 0 14 -6 25 -8 15 -8 22 2 25 8 4 7 6 -3 6 -8 0 -22 -7 -30 -16z"/>
<path d="M475 170 c3 -5 8 -10 11 -10 2 0 4 5 4 10 0 6 -5 10 -11 10 -5 0 -7
-4 -4 -10z"/>
<path d="M648 174 c-4 -3 -4 -12 -1 -20 3 -8 -1 -14 -11 -14 -19 0 -22 -20 -3
-20 7 -1 5 -6 -6 -14 -12 -9 -14 -16 -7 -21 5 -3 8 -11 5 -16 -4 -5 -1 -9 4
-9 6 0 11 10 11 23 0 12 5 29 10 37 8 12 13 13 30 2 11 -7 20 -8 20 -3 0 5 -7
11 -15 15 -9 3 -19 15 -23 26 -4 12 -11 18 -14 14z"/>
<path d="M725 170 c-3 -6 1 -7 9 -4 18 7 21 14 7 14 -6 0 -13 -4 -16 -10z"/>
<path d="M508 163 c7 -3 16 -2 19 1 4 3 -2 6 -13 5 -11 0 -14 -3 -6 -6z"/>
<path d="M555 160 c-3 -6 1 -7 9 -4 18 7 21 14 7 14 -6 0 -13 -4 -16 -10z"/>
<path d="M458 143 c7 -3 16 -2 19 1 4 3 -2 6 -13 5 -11 0 -14 -3 -6 -6z"/>
<path d="M415 91 c3 -5 -4 -12 -15 -16 -19 -6 -19 -8 -4 -23 15 -15 15 -16 -2
-23 -13 -5 -14 -8 -4 -8 8 0 24 4 35 9 l20 9 -20 1 c-15 1 -17 3 -5 8 20 9 22
52 3 52 -8 0 -12 -4 -8 -9z"/>
<path d="M490 90 c8 -5 20 -10 25 -10 6 0 3 5 -5 10 -8 5 -19 10 -25 10 -5 0
-3 -5 5 -10z"/>
<path d="M680 89 c0 -5 -4 -8 -9 -4 -5 3 -13 0 -17 -6 -4 -7 -3 -9 3 -6 6 4
19 0 29 -8 15 -11 17 -16 7 -26 -8 -8 -13 -9 -13 -3 0 6 -7 11 -15 11 -11 0
-12 -4 -4 -13 6 -8 6 -14 0 -18 -9 -6 -54 47 -46 56 2 2 -5 4 -15 5 -17 2 -18
-1 -7 -18 6 -10 14 -19 18 -19 3 0 6 -7 6 -16 0 -14 -2 -14 -14 2 -8 11 -18
19 -23 19 -4 0 -12 3 -16 8 -4 4 -11 7 -16 7 -5 0 7 -14 27 -31 27 -24 38 -29
48 -20 10 7 17 7 24 0 7 -7 13 -8 17 0 4 5 14 7 23 4 10 -4 14 -2 9 5 -3 6 -1
14 5 17 5 4 8 13 5 20 -3 8 -2 16 2 18 4 2 1 2 -5 1 -7 -2 -13 1 -13 6 0 5 8
11 18 13 13 4 11 5 -5 6 -13 0 -23 -4 -23 -10z"/>
<path d="M730 70 c0 -5 1 -11 2 -12 1 -2 -4 -14 -12 -28 -7 -14 -9 -22 -5 -18
5 4 14 3 21 -3 8 -7 14 -6 20 2 4 8 3 9 -4 5 -12 -7 -16 2 -14 42 1 12 -1 22
-3 22 -3 0 -5 -4 -5 -10z"/>
<path d="M455 30 c-3 -6 1 -7 9 -4 18 7 21 14 7 14 -6 0 -13 -4 -16 -10z"/>
<path d="M518 23 c7 -3 16 -2 19 1 4 3 -2 6 -13 5 -11 0 -14 -3 -6 -6z"/>
<path d="M338 13 c6 -2 18 -2 25 0 6 3 1 5 -13 5 -14 0 -19 -2 -12 -5z"/>
<path d="M420 16 c0 -2 7 -7 16 -10 8 -3 12 -2 9 4 -6 10 -25 14 -25 6z"/>
<path d="M388 3 c7 -3 16 -2 19 1 4 3 -2 6 -13 5 -11 0 -14 -3 -6 -6z"/>
</g>
</svg>
